<?xml version="1.0" encoding="UTF-8" standalone="no"?>
<!-- Created with Inkscape (http://www.inkscape.org/) -->

<svg
   width="14.681092mm"
   height="13.340624mm"
   viewBox="0 0 14.681092 13.340624"
   version="1.1"
   id="svg1"
   xml:space="preserve"
   inkscape:version="1.3.2 (091e20ef0f, 2023-11-25)"
   sodipodi:docname="tmp.svg"
   xmlns:inkscape="http://www.inkscape.org/namespaces/inkscape"
   xmlns:sodipodi="http://sodipodi.sourceforge.net/DTD/sodipodi-0.dtd"
   xmlns="http://www.w3.org/2000/svg"
   xmlns:svg="http://www.w3.org/2000/svg"><sodipodi:namedview
     id="namedview1"
     pagecolor="#f1d0f2"
     bordercolor="#000000"
     borderopacity="0.25"
     inkscape:showpageshadow="2"
     inkscape:pageopacity="0.0"
     inkscape:pagecheckerboard="0"
     inkscape:deskcolor="#d1d1d1"
     inkscape:document-units="mm"
     inkscape:zoom="4"
     inkscape:cx="113.375"
     inkscape:cy="64.500001"
     inkscape:window-width="2560"
     inkscape:window-height="1011"
     inkscape:window-x="0"
     inkscape:window-y="32"
     inkscape:window-maximized="1"
     inkscape:current-layer="layer1" /><defs
     id="defs1"><inkscape:path-effect
       effect="simplify"
       id="path-effect97"
       is_visible="true"
       lpeversion="1.3"
       threshold="363.636"
       steps="1"
       smooth_angles="360"
       helper_size="0"
       simplify_individual_paths="false"
       simplify_just_coalesce="false" /><inkscape:path-effect
       effect="simplify"
       id="path-effect95"
       is_visible="true"
       lpeversion="1.3"
       threshold="363.636"
       steps="1"
       smooth_angles="360"
       helper_size="0"
       simplify_individual_paths="false"
       simplify_just_coalesce="false" /><inkscape:path-effect
       effect="simplify"
       id="path-effect93"
       is_visible="true"
       lpeversion="1.3"
       threshold="363.636"
       steps="1"
       smooth_angles="360"
       helper_size="0"
       simplify_individual_paths="false"
       simplify_just_coalesce="false" /><inkscape:path-effect
       effect="simplify"
       id="path-effect91"
       is_visible="true"
       lpeversion="1.3"
       threshold="363.636"
       steps="1"
       smooth_angles="360"
       helper_size="0"
       simplify_individual_paths="false"
       simplify_just_coalesce="false" /><inkscape:path-effect
       effect="simplify"
       id="path-effect89"
       is_visible="true"
       lpeversion="1.3"
       threshold="363.636"
       steps="1"
       smooth_angles="360"
       helper_size="0"
       simplify_individual_paths="false"
       simplify_just_coalesce="false" /><inkscape:path-effect
       effect="simplify"
       id="path-effect83"
       is_visible="true"
       lpeversion="1.3"
       threshold="363.636"
       steps="1"
       smooth_angles="360"
       helper_size="0"
       simplify_individual_paths="false"
       simplify_just_coalesce="false" /><inkscape:path-effect
       effect="simplify"
       id="path-effect73"
       is_visible="true"
       lpeversion="1.3"
       threshold="363.636"
       steps="1"
       smooth_angles="360"
       helper_size="0"
       simplify_individual_paths="false"
       simplify_just_coalesce="false" /><inkscape:path-effect
       effect="simplify"
       id="path-effect69"
       is_visible="true"
       lpeversion="1.3"
       threshold="363.636"
       steps="1"
       smooth_angles="360"
       helper_size="0"
       simplify_individual_paths="false"
       simplify_just_coalesce="false" /><inkscape:path-effect
       effect="simplify"
       id="path-effect65"
       is_visible="true"
       lpeversion="1.3"
       threshold="363.636"
       steps="1"
       smooth_angles="360"
       helper_size="0"
       simplify_individual_paths="false"
       simplify_just_coalesce="false" /></defs><g
     inkscape:label="Layer 1"
     inkscape:groupmode="layer"
     id="layer1"
     transform="translate(-5.4667312,-9.5592992)"><rect
       style="fill:#ffffff;fill-opacity:1;stroke-width:0.3;stroke-linecap:square;stroke-linejoin:round;stroke-miterlimit:0"
       id="rect142"
       width="14.681092"
       height="13.340623"
       x="5.4667311"
       y="9.5592995" /><path
       style="font-style:italic;font-weight:900;font-size:25.3333px;line-height:0.8;font-family:'DIN Next W1G';-inkscape-font-specification:'DIN Next W1G Heavy Italic';letter-spacing:2.31px;white-space:pre;stroke-width:1.16053;stroke-linecap:square;stroke-linejoin:round;stroke-miterlimit:0"
       d="m 60.261203,166.84498 c -0.02533,0.152 0.076,0.25333 0.228,0.25333 h 10.943985 c 0.152,0 0.253333,-0.10133 0.278666,-0.25333 l 0.734666,-4.028 c 0.02533,-0.152 -0.076,-0.25333 -0.228,-0.25333 h -5.953325 c -0.076,0 -0.126667,-0.0507 -0.101333,-0.152 L 68.342525,150.125 c 0.02533,-0.152 -0.076,-0.25333 -0.227999,-0.25333 h -4.610661 c -0.152,0 -0.253333,0.10133 -0.278666,0.25333 z m 29.239281,0.25333 c 0.177333,0 0.228,-0.152 0.202666,-0.27867 l -1.671997,-6.35865 c 2.102663,-1.08934 3.470662,-3.14133 3.470662,-5.95333 0,-2.68533 -1.773331,-4.63599 -5.52266,-4.63599 h -6.966657 c -0.126667,0 -0.228,0.10133 -0.253333,0.25333 l -2.963996,16.71998 c -0.02533,0.152 0.076,0.25333 0.202666,0.25333 h 4.610661 c 0.152,0 0.253333,-0.10133 0.278666,-0.25333 l 0.962665,-5.32 c 0.02533,-0.10133 0.076,-0.15199 0.152,-0.15199 h 1.367998 l 1.215999,5.47199 c 0.05067,0.17733 0.126666,0.25333 0.354666,0.25333 z m -5.21866,-9.85465 H 82.71116 c -0.076,0 -0.126667,-0.0507 -0.101334,-0.152 l 0.506666,-2.812 c 0,-0.10133 0.076,-0.152 0.152,-0.152 h 1.595998 c 0.937332,0 1.443998,0.43067 1.443998,1.14 0,1.292 -0.886665,1.976 -2.026664,1.976 z m 9.276673,9.60132 c -0.02533,0.152 0.076,0.25333 0.202667,0.25333 h 11.171986 c 0.152,0 0.25333,-0.10133 0.27867,-0.25333 l 0.65866,-3.74933 c 0.0253,-0.152 -0.0507,-0.25333 -0.20267,-0.25333 h -6.18132 c -0.101334,0 -0.126667,-0.0507 -0.126667,-0.152 l 0.38,-2.052 c 0.02533,-0.10133 0.076,-0.152 0.151999,-0.152 h 4.965328 c 0.152,0 0.27867,-0.10133 0.304,-0.25333 l 0.63333,-3.648 c 0.0253,-0.152 -0.0507,-0.25333 -0.20267,-0.25333 h -4.96532 c -0.076,0 -0.12667,-0.0507 -0.10134,-0.152 l 0.32934,-1.9 c 0,-0.10133 0.076,-0.152 0.152,-0.152 h 6.23199 c 0.12667,0 0.228,-0.10133 0.25333,-0.25333 l 0.684,-3.74933 c 0.0253,-0.152 -0.0507,-0.25333 -0.20267,-0.25333 H 96.775826 c -0.126666,0 -0.227999,0.10133 -0.253333,0.25333 z"
       id="text2"
       transform="matrix(0.25850306,0,0,0.25850306,-8.8537128,-27.962827)"
       aria-label="LRE" /><g
       id="g50"
       transform="matrix(0.05429708,0,0,0.05402213,11.005771,10.11697)"
       style="stroke-width:2.7696"><g
         id="g42"
         style="stroke-width:2.7696"><line
           x1="16"
           x2="25.875"
           y1="35"
           y2="35"
           fill="#ea5a47"
           stroke="none"
           id="line9"
           style="stroke-width:2.7696" /><path
           fill="#ea5a47"
           stroke="none"
           d="m 25.875,35 c 3.4167,0 4.75,-2.9167 4.75,-6.1667"
           id="path24"
           style="stroke-width:2.7696" /><line
           x1="16"
           x2="19.75"
           y1="45.5"
           y2="45.5"
           fill="#ea5a47"
           stroke="none"
           id="line27"
           style="stroke-width:2.7696" /><line
           x1="35.299702"
           x2="35.299702"
           y1="45.5"
           y2="39.4375"
           fill="#ea5a47"
           stroke="none"
           id="line28"
           style="stroke-width:2.7696" /><path
           fill="#ea5a47"
           stroke="none"
           d="m 35.2997,39.4375 c 0,-2.2455 1.2003,-5.25 5.0756,-5.25"
           id="path40"
           style="stroke-width:2.7696" /><line
           x1="58.458302"
           x2="49.875"
           y1="34.541698"
           y2="34.541698"
           fill="#ea5a47"
           stroke="none"
           id="line40"
           style="stroke-width:2.7696" /><path
           fill="#ffa7c0"
           stroke="none"
           d="m 44.470096,45.5 c 0,0 -3.930896,10.5 -12.053396,10.5 H 16 C 8.7917,56 8.3333,45.5 16,45.5 8.7917,45.5 8.3333,35 16,35 7.8333,27.75 17.875,21.4375 22.5,26.3125 17.701,19.6875 27.875,16 31.375,21.3125 30.9627,16 36.2222,15.0417 41.1003,19.024 l -0.4336,0.351 C 43.0417,17 50.8443,18.2917 50.8443,24.6891 l -2.2192,1.6234 c 6.8646,-6.8646 14.2083,4.1875 8.5,8.2292 h 1.3333 c 4.75,0 5.2917,10.9583 -1.3333,10.9583 H 29.2917"
           id="path41"
           style="stroke-width:2.7696"
           sodipodi:nodetypes="csscccccccccssc" /><path
           fill="#ea5a47"
           stroke="none"
           d="M 40.6667,19.375 C 38.25,21.7917 40.3845,22.5532 36.396,26.5417"
           id="path42"
           style="stroke-width:2.7696" /></g><g
         id="g43"
         style="stroke-width:2.7696" /><g
         id="g44"
         style="stroke-width:2.7696" /><g
         id="g45"
         style="stroke-width:2.7696" /><g
         id="g49"
         style="stroke-width:2.7696"><line
           x1="16"
           x2="25.875"
           y1="35"
           y2="35"
           fill="none"
           stroke="#000000"
           stroke-linecap="round"
           stroke-linejoin="round"
           stroke-miterlimit="10"
           stroke-width="8.74652"
           id="line45"
           style="stroke-width:2.7696" /><path
           fill="none"
           stroke="#000000"
           stroke-linecap="round"
           stroke-linejoin="round"
           stroke-miterlimit="10"
           stroke-width="8.74652"
           d="m 25.875,35 c 3.4167,0 4.75,-2.9167 4.75,-6.1667"
           id="path45"
           style="stroke-width:2.7696" /><line
           x1="16"
           x2="19.75"
           y1="45.5"
           y2="45.5"
           fill="none"
           stroke="#000000"
           stroke-linecap="round"
           stroke-linejoin="round"
           stroke-miterlimit="10"
           stroke-width="8.74652"
           id="line46"
           style="stroke-width:2.7696" /><line
           x1="35.299702"
           x2="35.299702"
           y1="45.5"
           y2="39.4375"
           fill="none"
           stroke="#000000"
           stroke-linecap="round"
           stroke-linejoin="round"
           stroke-miterlimit="10"
           stroke-width="8.74652"
           id="line47"
           style="stroke-width:2.7696" /><path
           fill="none"
           stroke="#000000"
           stroke-linecap="round"
           stroke-linejoin="round"
           stroke-miterlimit="10"
           stroke-width="8.74652"
           d="m 35.2997,39.4375 c 0,-2.2455 1.2003,-5.25 5.0756,-5.25"
           id="path47"
           style="stroke-width:2.7696" /><line
           x1="58.458302"
           x2="49.875"
           y1="34.541698"
           y2="34.541698"
           fill="none"
           stroke="#000000"
           stroke-linecap="round"
           stroke-linejoin="round"
           stroke-miterlimit="10"
           stroke-width="8.74652"
           id="line48"
           style="stroke-width:2.7696" /><path
           fill="none"
           stroke="#000000"
           stroke-linecap="round"
           stroke-linejoin="round"
           stroke-miterlimit="10"
           stroke-width="8.74652"
           d="m 44.182721,45.5 c 0,0 -3.643521,10.5 -11.766021,10.5 H 16 C 8.7917,56 8.3333,45.5 16,45.5 8.7917,45.5 8.3333,35 16,35 7.8333,27.75 17.875,21.4375 22.5,26.3125 17.701,19.6875 27.875,16 31.375,21.3125 30.9627,16 36.2222,15.0417 41.1003,19.024 l -0.4336,0.351 C 43.0417,17 50.8443,18.2917 50.8443,24.6891 l -2.2192,1.6234 c 6.8646,-6.8646 14.2083,4.1875 8.5,8.2292 h 1.3333 c 4.75,0 5.2917,10.9583 -1.3333,10.9583 H 29.2917"
           id="path48"
           style="stroke-width:2.7696"
           sodipodi:nodetypes="csscccccccccssc" /><path
           fill="none"
           stroke="#000000"
           stroke-linecap="round"
           stroke-linejoin="round"
           stroke-miterlimit="10"
           stroke-width="8.74652"
           d="M 40.6667,19.375 C 38.25,21.7917 40.3845,22.5532 36.396,26.5417"
           id="path49"
           style="stroke-width:2.7696" /></g></g><rect
       style="fill:#007894;fill-opacity:1;stroke:#000000;stroke-width:0.165014;stroke-linecap:round;stroke-linejoin:round;stroke-miterlimit:0;stroke-opacity:1"
       id="rect50"
       width="0.97794306"
       height="4.7107925"
       x="-18.659922"
       y="7.953618"
       rx="0.38002101"
       ry="0.18668161"
       transform="matrix(-0.98737184,-0.15841987,-0.17678627,0.98424926,0,0)" /><path
       style="fill:none;fill-opacity:1;stroke:#000000;stroke-width:0.151373;stroke-linecap:round;stroke-linejoin:round;stroke-miterlimit:0;stroke-opacity:1"
       d="m 39.257271,57.437194 c 0.217049,0.140489 0.501911,0.12727 0.721522,0"
       id="path50"
       sodipodi:nodetypes="cc"
       transform="matrix(-1.268547,-0.20353331,-0.16351967,0.91038809,75.487944,-29.495555)"
       inkscape:original-d="m 39.257271,57.437194 c 0.248537,0.153704 0.517236,0.114473 0.721522,0"
       inkscape:path-effect="#path-effect65" /><path
       style="fill:none;fill-opacity:1;stroke:#000000;stroke-width:0.151373;stroke-linecap:round;stroke-linejoin:round;stroke-miterlimit:0;stroke-opacity:1"
       d="m 39.257271,57.437194 c 0.217049,0.140489 0.501911,0.12727 0.721522,0"
       id="path51"
       sodipodi:nodetypes="cc"
       transform="matrix(-1.268547,-0.20353331,0.16351967,-0.91038809,57.318522,71.661854)"
       inkscape:original-d="m 39.257271,57.437194 c 0.248537,0.153704 0.517236,0.114473 0.721522,0"
       inkscape:path-effect="#path-effect69" /><rect
       style="fill:#b7352d;fill-opacity:1;stroke:#000000;stroke-width:0.165023;stroke-linecap:round;stroke-linejoin:round;stroke-miterlimit:0;stroke-opacity:1"
       id="rect51"
       width="0.62160182"
       height="3.7820985"
       x="18.088081"
       y="7.340713"
       rx="0.38021806"
       ry="0.18589996"
       transform="matrix(0.96637724,0.25712842,-0.28029459,0.95991403,0,0)" /><path
       style="fill:none;fill-opacity:1;stroke:#000000;stroke-width:0.211661;stroke-linecap:round;stroke-linejoin:round;stroke-miterlimit:0;stroke-opacity:1"
       d="m 39.257271,57.437194 c 0.216297,0.139557 0.502384,0.127826 0.721522,0"
       id="path52"
       sodipodi:nodetypes="cc"
       transform="matrix(0.78917117,0.20997839,-0.20864183,0.71452761,-4.4933416,-34.439701)"
       inkscape:original-d="m 39.257271,57.437194 c 0.248537,0.153704 0.517236,0.114473 0.721522,0"
       inkscape:path-effect="#path-effect73" /><path
       style="fill:none;fill-opacity:1;stroke:#000000;stroke-width:0.211661;stroke-linecap:round;stroke-linejoin:round;stroke-miterlimit:0;stroke-opacity:1"
       d="m 39.257271,57.437194 c 0.216297,0.139557 0.502384,0.127826 0.721522,0"
       id="path53"
       sodipodi:nodetypes="cc"
       transform="matrix(0.78917117,0.20997839,0.20864184,-0.7145276,-27.676496,44.954745)"
       inkscape:original-d="m 39.257271,57.437194 c 0.248537,0.153704 0.517236,0.114473 0.721522,0"
       inkscape:path-effect="#path-effect83" /><g
       id="g55"
       style="stroke-width:0.307056"
       transform="matrix(-0.97701946,0,0,0.97701946,24.006933,-40.99821)"><path
         style="fill:none;fill-opacity:1;stroke:#000000;stroke-width:0.307056;stroke-linecap:round;stroke-linejoin:round;stroke-miterlimit:0;stroke-opacity:1"
         d="m 13.984753,54.912635 c 0.423,0 0.846001,0 1.269001,0"
         id="path54"
         inkscape:path-effect="#path-effect89"
         inkscape:original-d="m 13.984753,54.912635 h 1.269001" /><path
         style="fill:none;fill-opacity:1;stroke:#000000;stroke-width:0.307056;stroke-linecap:round;stroke-linejoin:round;stroke-miterlimit:0;stroke-opacity:1"
         d="m 15.253754,54.912635 c 0.08561,-0.165713 0.171231,-0.331427 0.256846,-0.49714"
         id="path55"
         inkscape:path-effect="#path-effect91"
         inkscape:original-d="M 15.253754,54.912635 15.5106,54.415495"
         sodipodi:nodetypes="cc" /></g><g
       id="g57"
       style="stroke-width:0.307056"
       transform="matrix(0.97701946,0,0,0.97701946,-5.5428918,-41.515216)"><path
         style="fill:none;fill-opacity:1;stroke:#000000;stroke-width:0.307056;stroke-linecap:round;stroke-linejoin:round;stroke-miterlimit:0;stroke-opacity:1"
         d="m 13.984753,54.912635 c 0.423,0 0.846001,0 1.269001,0"
         id="path56"
         inkscape:path-effect="#path-effect93"
         inkscape:original-d="m 13.984753,54.912635 h 1.269001" /><path
         style="fill:none;fill-opacity:1;stroke:#000000;stroke-width:0.307056;stroke-linecap:round;stroke-linejoin:round;stroke-miterlimit:0;stroke-opacity:1"
         d="m 15.253754,54.912635 c 0.110401,-0.312474 0.220801,-0.62495 0.331202,-0.937424"
         id="path57"
         inkscape:path-effect="#path-effect95"
         inkscape:original-d="m 15.253754,54.912635 0.331202,-0.937424" /></g><ellipse
       style="fill:#ffffff;fill-opacity:1;stroke:#000000;stroke-width:0.200001;stroke-linecap:round;stroke-linejoin:round;stroke-miterlimit:0;stroke-opacity:1"
       id="ellipse57"
       cx="9.6246414"
       cy="11.282361"
       rx="0.38806033"
       ry="0.38724822" /><g
       id="g58"
       style="stroke-width:0.307056"
       transform="matrix(0.97701946,0,0,0.97701946,-5.7164608,-40.132069)"><path
         style="fill:none;fill-opacity:1;stroke:#000000;stroke-width:0.307056;stroke-linecap:round;stroke-linejoin:round;stroke-miterlimit:0;stroke-opacity:1"
         d="m 13.984753,54.912635 c 0.423,0 0.846001,0 1.269001,0"
         id="path58"
         inkscape:path-effect="#path-effect97"
         inkscape:original-d="m 13.984753,54.912635 h 1.269001" /></g><ellipse
       style="fill:#ffffff;fill-opacity:1;stroke:#000000;stroke-width:0.2;stroke-linecap:round;stroke-linejoin:round;stroke-miterlimit:0;stroke-opacity:1"
       id="ellipse58"
       cx="9.5371304"
       cy="13.484025"
       rx="0.3893621"
       ry="0.38854787" /><ellipse
       style="fill:#ffffff;fill-opacity:1;stroke:#000000;stroke-width:0.2;stroke-linecap:round;stroke-linejoin:round;stroke-miterlimit:0;stroke-opacity:1"
       id="ellipse59"
       cx="10.475489"
       cy="12.653041"
       rx="0.3893621"
       ry="0.38854787" /><g
       id="text62"
       style="font-size:2.6292px;line-height:0.8;font-family:'Clear Sans';-inkscape-font-specification:'Clear Sans';letter-spacing:0px;fill:none;stroke:#000000;stroke-width:0.165;stroke-linecap:round;stroke-linejoin:round;stroke-miterlimit:0"
       aria-label="Language&#10;Reasoning&#10;Education"><path
         style="font-family:'DIN Next W1G';-inkscape-font-specification:'DIN Next W1G';letter-spacing:0.0876399px;fill:#000000;stroke:none"
         d="m 7.008481,17.396567 c 0,0.01577 0.010517,0.02629 0.026292,0.02629 h 1.0753428 c 0.015775,0 0.026292,-0.01052 0.026292,-0.02629 v -0.165639 c 0,-0.01578 -0.010517,-0.02629 -0.026292,-0.02629 H 7.258255 c -0.010517,0 -0.015775,-0.0053 -0.015775,-0.01578 v -1.527565 c 0,-0.01578 -0.010517,-0.02629 -0.026292,-0.02629 H 7.034773 c -0.015775,0 -0.026292,0.01052 -0.026292,0.02629 z m 2.4144822,0.02629 c 0.015775,0 0.026292,-0.01052 0.026292,-0.02629 v -0.833456 c 0,-0.310246 -0.1367184,-0.42856 -0.4942896,-0.42856 -0.1866732,0 -0.3339084,0.04996 -0.4285596,0.123573 -0.010517,0.01052 -0.013146,0.02103 -0.00526,0.03681 l 0.070988,0.120944 c 0.00789,0.01315 0.023663,0.01315 0.036809,0.0026 0.073618,-0.05258 0.1630104,-0.08939 0.3049872,-0.08939 0.2339988,0 0.302358,0.07362 0.302358,0.247145 v 0.09202 c 0,0.01052 -0.00526,0.01578 -0.015775,0.01578 H 8.933932 c -0.3076164,0 -0.4916604,0.123572 -0.4916604,0.389122 0,0.255032 0.184044,0.378604 0.4233012,0.378604 0.1919316,0 0.315504,-0.07099 0.3733464,-0.165639 h 0.00263 v 0.110426 c 0,0.01577 0.010517,0.02629 0.026292,0.02629 z M 8.9181568,17.262478 c -0.1682688,0 -0.26292,-0.06836 -0.26292,-0.19719 0,-0.141977 0.094651,-0.205078 0.3128748,-0.205078 h 0.2524032 c 0.010517,0 0.015775,0.0053 0.015775,0.01578 v 0.139347 c 0,0.155123 -0.1209432,0.247145 -0.3181332,0.247145 z m 2.0253582,0.160381 c 0.01577,0 0.02629,-0.01052 0.02629,-0.02629 v -0.78876 c 0,-0.286583 -0.163011,-0.473256 -0.436448,-0.473256 -0.170898,0 -0.291841,0.07362 -0.352312,0.170898 h -0.0026 v -0.115685 c 0,-0.01578 -0.01052,-0.02629 -0.02629,-0.02629 H 9.9838567 c -0.015775,0 -0.026292,0.01052 -0.026292,0.02629 v 1.206803 c 0,0.01577 0.010517,0.02629 0.026292,0.02629 h 0.1682683 c 0.01578,0 0.02629,-0.01052 0.02629,-0.02629 v -0.749322 c 0,-0.186673 0.118314,-0.307616 0.289212,-0.307616 0.189303,0 0.281325,0.118314 0.281325,0.320762 v 0.736176 c 0,0.01577 0.01052,0.02629 0.02629,0.02629 z m 0.942131,0.502177 c 0.354942,0 0.549503,-0.199819 0.549503,-0.55739 v -1.177882 c 0,-0.01578 -0.01052,-0.02629 -0.02629,-0.02629 H 12.24059 c -0.01578,0 -0.02629,0.01052 -0.02629,0.02629 v 0.118314 h -0.0026 c -0.05784,-0.105168 -0.165639,-0.173527 -0.349683,-0.173527 -0.212966,0 -0.360201,0.107797 -0.423302,0.304987 -0.03155,0.09465 -0.04207,0.186674 -0.04207,0.33128 0,0.144606 0.01052,0.236628 0.04207,0.331279 0.0631,0.19719 0.210336,0.304987 0.423302,0.304987 0.184044,0 0.291841,-0.06836 0.349683,-0.173527 h 0.0026 v 0.147235 c 0,0.23137 -0.110426,0.339167 -0.318133,0.339167 -0.120943,0 -0.210336,-0.04733 -0.297099,-0.126202 -0.01315,-0.01315 -0.02629,-0.01315 -0.03944,0 l -0.107798,0.107797 c -0.01315,0.01315 -0.01315,0.02366 -0.0026,0.03681 0.08413,0.110427 0.260291,0.186673 0.436447,0.186673 z m 0.03155,-0.7204 c -0.136719,0 -0.223482,-0.06573 -0.265549,-0.189303 -0.02103,-0.0631 -0.03155,-0.141977 -0.03155,-0.244515 0,-0.102539 0.01052,-0.178786 0.03155,-0.244516 0.04207,-0.120943 0.12883,-0.186673 0.265549,-0.186673 0.13146,0 0.223482,0.05784 0.268178,0.186673 0.02103,0.06573 0.02892,0.136718 0.02892,0.244516 0,0.107797 -0.0079,0.181414 -0.02892,0.244515 -0.0447,0.128831 -0.136718,0.189303 -0.268178,0.189303 z m 1.996437,0.218223 c 0.01577,0 0.02629,-0.01052 0.02629,-0.02629 v -1.206803 c 0,-0.01578 -0.01052,-0.02629 -0.02629,-0.02629 h -0.168269 c -0.01577,0 -0.02629,0.01052 -0.02629,0.02629 v 0.746693 c 0,0.189303 -0.113056,0.310246 -0.283954,0.310246 -0.186673,0 -0.278695,-0.118314 -0.278695,-0.323392 v -0.733547 c 0,-0.01578 -0.01052,-0.02629 -0.02629,-0.02629 h -0.168269 c -0.01577,0 -0.02629,0.01052 -0.02629,0.02629 v 0.786131 c 0,0.286583 0.160382,0.475885 0.436448,0.475885 0.16301,0 0.278695,-0.06836 0.344425,-0.173527 h 0.0026 v 0.118314 c 0,0.01577 0.01052,0.02629 0.02629,0.02629 z m 1.46271,0 c 0.01577,0 0.02629,-0.01052 0.02629,-0.02629 v -0.833456 c 0,-0.310246 -0.136718,-0.42856 -0.49429,-0.42856 -0.186673,0 -0.333908,0.04996 -0.428559,0.123573 -0.01052,0.01052 -0.01315,0.02103 -0.0053,0.03681 l 0.07099,0.120944 c 0.0079,0.01315 0.02366,0.01315 0.03681,0.0026 0.07362,-0.05258 0.16301,-0.08939 0.304987,-0.08939 0.233999,0 0.302358,0.07362 0.302358,0.247145 v 0.09202 c 0,0.01052 -0.0053,0.01578 -0.01578,0.01578 h -0.286583 c -0.307617,0 -0.491661,0.123572 -0.491661,0.389122 0,0.255032 0.184044,0.378604 0.423302,0.378604 0.191931,0 0.315504,-0.07099 0.373346,-0.165639 h 0.0026 v 0.110426 c 0,0.01577 0.01052,0.02629 0.02629,0.02629 z m -0.504806,-0.160381 c -0.168269,0 -0.26292,-0.06836 -0.26292,-0.19719 0,-0.141977 0.09465,-0.205078 0.312874,-0.205078 h 0.252404 c 0.01052,0 0.01578,0.0053 0.01578,0.01578 v 0.139347 c 0,0.155123 -0.120943,0.247145 -0.318133,0.247145 z m 1.449563,0.662558 c 0.354942,0 0.549503,-0.199819 0.549503,-0.55739 v -1.177882 c 0,-0.01578 -0.01052,-0.02629 -0.02629,-0.02629 h -0.168269 c -0.01578,0 -0.02629,0.01052 -0.02629,0.02629 v 0.118314 h -0.0026 c -0.05784,-0.105168 -0.16564,-0.173527 -0.349684,-0.173527 -0.212965,0 -0.3602,0.107797 -0.423301,0.304987 -0.03155,0.09465 -0.04207,0.186674 -0.04207,0.33128 0,0.144606 0.01052,0.236628 0.04207,0.331279 0.0631,0.19719 0.210336,0.304987 0.423301,0.304987 0.184044,0 0.291842,-0.06836 0.349684,-0.173527 h 0.0026 v 0.147235 c 0,0.23137 -0.110426,0.339167 -0.318133,0.339167 -0.120943,0 -0.210336,-0.04733 -0.2971,-0.126202 -0.01315,-0.01315 -0.02629,-0.01315 -0.03944,0 l -0.107797,0.107797 c -0.01315,0.01315 -0.01315,0.02366 -0.0026,0.03681 0.08413,0.110427 0.260291,0.186673 0.436447,0.186673 z m 0.03155,-0.7204 c -0.136719,0 -0.223482,-0.06573 -0.26555,-0.189303 -0.02103,-0.0631 -0.03155,-0.141977 -0.03155,-0.244515 0,-0.102539 0.01052,-0.178786 0.03155,-0.244516 0.04207,-0.120943 0.128831,-0.186673 0.26555,-0.186673 0.13146,0 0.223482,0.05784 0.268178,0.186673 0.02103,0.06573 0.02892,0.136718 0.02892,0.244516 0,0.107797 -0.0079,0.181414 -0.02892,0.244515 -0.0447,0.128831 -0.136718,0.189303 -0.268178,0.189303 z m 1.507406,0.247144 c 0.220853,0 0.391751,-0.08939 0.49166,-0.215594 0.01052,-0.01315 0.01052,-0.02629 -0.0026,-0.03681 l -0.107797,-0.09728 c -0.01315,-0.01052 -0.02629,-0.0079 -0.03944,0.0053 -0.06836,0.07888 -0.173527,0.139348 -0.323392,0.139348 -0.155122,0 -0.268178,-0.07362 -0.318133,-0.218224 -0.01315,-0.04207 -0.02103,-0.08413 -0.02103,-0.152493 0,-0.01052 0.0053,-0.01578 0.01578,-0.01578 h 0.796647 c 0.0184,0 0.02892,-0.01052 0.02892,-0.02629 0,-0.191931 -0.01315,-0.278695 -0.03944,-0.3602 -0.07099,-0.215594 -0.252403,-0.339167 -0.494289,-0.339167 -0.239257,0 -0.423301,0.120943 -0.49429,0.339167 -0.02629,0.07625 -0.03944,0.173527 -0.03944,0.318133 0,0.144606 0.01578,0.236628 0.04207,0.318133 0.06836,0.218224 0.249774,0.341796 0.504806,0.341796 z m -0.304987,-0.767726 c -0.01052,0 -0.01578,-0.0053 -0.01578,-0.01578 0,-0.05784 0.0053,-0.102539 0.0184,-0.141977 0.04207,-0.126202 0.147235,-0.19719 0.289212,-0.19719 0.141977,0 0.247145,0.07099 0.289212,0.19719 0.01315,0.03944 0.0184,0.08413 0.0184,0.141977 0,0.01052 -0.0053,0.01578 -0.01577,0.01578 z"
         id="path145" /><path
         style="font-family:'DIN Next W1G';-inkscape-font-specification:'DIN Next W1G';letter-spacing:-0.0185208px;fill:#000000;stroke:none"
         d="m 8.2547218,19.586557 c 0.018404,0 0.026292,-0.01577 0.015775,-0.03155 L 7.889263,18.800426 c 0.2155944,-0.06836 0.3523128,-0.244515 0.3523128,-0.486401 0,-0.310246 -0.2261112,-0.515324 -0.5600196,-0.515324 H 7.034773 c -0.015775,0 -0.026292,0.01052 -0.026292,0.02629 v 1.735272 c 0,0.01577 0.010517,0.02629 0.026292,0.02629 h 0.1814148 c 0.015775,0 0.026292,-0.01052 0.026292,-0.02629 v -0.715142 c 0,-0.01052 0.00526,-0.01578 0.015775,-0.01578 h 0.39438 l 0.3575712,0.730917 c 0.00789,0.0184 0.015775,0.02629 0.03418,0.02629 z M 7.6762978,18.611124 H 7.258255 c -0.010517,0 -0.015775,-0.0053 -0.015775,-0.01578 V 18.0327 c 0,-0.01052 0.00526,-0.01577 0.015775,-0.01577 h 0.4180428 c 0.2077068,0 0.3312792,0.110426 0.3312792,0.2971 0,0.186673 -0.1235724,0.297099 -0.3312792,0.297099 z m 1.4012486,1.004354 c 0.2208528,0 0.3917508,-0.08939 0.4916604,-0.215594 0.010517,-0.01315 0.010517,-0.02629 -0.00263,-0.03681 l -0.1077972,-0.09728 c -0.013146,-0.01052 -0.026292,-0.0079 -0.039438,0.0053 -0.068359,0.07888 -0.1735272,0.139348 -0.3233916,0.139348 -0.1551228,0 -0.2681784,-0.07362 -0.3181332,-0.218224 -0.013146,-0.04207 -0.021034,-0.08413 -0.021034,-0.152493 0,-0.01052 0.00526,-0.01578 0.015775,-0.01578 h 0.7966476 c 0.018404,0 0.028921,-0.01052 0.028921,-0.02629 0,-0.191931 -0.013146,-0.278695 -0.039438,-0.3602 -0.070988,-0.215594 -0.2524032,-0.339167 -0.4942896,-0.339167 -0.2392572,0 -0.4233012,0.120944 -0.4942896,0.339167 -0.026292,0.07625 -0.039438,0.173527 -0.039438,0.318133 0,0.144606 0.015775,0.236628 0.042067,0.318133 0.068359,0.218224 0.249774,0.341796 0.5048064,0.341796 z M 8.7725592,18.847752 c -0.010517,0 -0.015775,-0.0053 -0.015775,-0.01578 0,-0.05784 0.00526,-0.102539 0.018404,-0.141977 0.042067,-0.126201 0.1472352,-0.19719 0.289212,-0.19719 0.1419768,0 0.2471448,0.07099 0.289212,0.19719 0.013146,0.03944 0.018404,0.08413 0.018404,0.141977 0,0.01052 -0.00526,0.01578 -0.015775,0.01578 z m 2.0795788,0.738805 c 0.01577,0 0.02629,-0.01052 0.02629,-0.02629 v -0.833456 c 0,-0.310246 -0.136719,-0.42856 -0.49429,-0.42856 -0.186673,0 -0.333908,0.04996 -0.4285593,0.123573 -0.010517,0.01052 -0.013146,0.02103 -0.00526,0.03681 l 0.070989,0.120943 c 0.0079,0.01315 0.02366,0.01315 0.03681,0.0026 0.07362,-0.05258 0.163011,-0.08939 0.304988,-0.08939 0.233998,0 0.302358,0.07362 0.302358,0.247145 v 0.09202 c 0,0.01052 -0.0053,0.01578 -0.01578,0.01578 h -0.286582 c -0.307617,0 -0.4916613,0.123572 -0.4916613,0.389122 0,0.255032 0.1840443,0.378604 0.4233013,0.378604 0.191932,0 0.315504,-0.07099 0.373347,-0.165639 h 0.0026 v 0.110426 c 0,0.01577 0.01052,0.02629 0.02629,0.02629 z m -0.504807,-0.160381 c -0.168268,0 -0.26292,-0.06836 -0.26292,-0.19719 0,-0.141977 0.09465,-0.205078 0.312875,-0.205078 h 0.252403 c 0.01052,0 0.01578,0.0053 0.01578,0.01578 v 0.139347 c 0,0.155123 -0.120944,0.247145 -0.318134,0.247145 z m 1.367066,0.189302 c 0.32865,0 0.507435,-0.165639 0.507435,-0.412784 0,-0.202448 -0.123572,-0.331279 -0.378604,-0.354942 l -0.13146,-0.01315 c -0.186674,-0.0184 -0.247145,-0.07099 -0.247145,-0.170898 0,-0.102539 0.0815,-0.173527 0.239257,-0.173527 0.128831,0 0.257662,0.04996 0.339167,0.102539 0.01315,0.0079 0.02629,0.0079 0.03681,-0.0053 l 0.08939,-0.113055 c 0.0079,-0.01315 0.0079,-0.02892 -0.0053,-0.03681 -0.105168,-0.07888 -0.26292,-0.139348 -0.446964,-0.139348 -0.2971,0 -0.467998,0.144606 -0.467998,0.383864 0,0.205077 0.128831,0.328649 0.375976,0.354941 l 0.134089,0.01315 c 0.19719,0.02103 0.244516,0.07625 0.244516,0.176157 0,0.113055 -0.09202,0.191931 -0.276066,0.191931 -0.152494,0 -0.294471,-0.0631 -0.389122,-0.144606 -0.01052,-0.01052 -0.02629,-0.01052 -0.03681,0 l -0.107797,0.115685 c -0.01052,0.01052 -0.01052,0.02629 0,0.03681 0.102539,0.08939 0.276066,0.189302 0.520582,0.189302 z m 1.298707,0 c 0.244516,0 0.42856,-0.126201 0.496919,-0.339166 0.02892,-0.08676 0.04207,-0.173528 0.04207,-0.320763 0,-0.144606 -0.01315,-0.231369 -0.04207,-0.318133 -0.06836,-0.215594 -0.252403,-0.339167 -0.496919,-0.339167 -0.244515,0 -0.428559,0.123573 -0.496919,0.339167 -0.02892,0.08676 -0.04207,0.173527 -0.04207,0.318133 0,0.147235 0.01315,0.233999 0.04207,0.320763 0.06836,0.212965 0.252404,0.339166 0.496919,0.339166 z m 0,-0.205077 c -0.139347,0 -0.241886,-0.07099 -0.283953,-0.19719 -0.02103,-0.06836 -0.02892,-0.136719 -0.02892,-0.257662 0,-0.120943 0.0079,-0.186673 0.02892,-0.255032 0.04207,-0.126202 0.144606,-0.19719 0.283953,-0.19719 0.139348,0 0.241887,0.07099 0.283954,0.19719 0.02103,0.06836 0.02892,0.134089 0.02892,0.255032 0,0.120943 -0.0079,0.189303 -0.02892,0.257662 -0.04207,0.126201 -0.144606,0.19719 -0.283954,0.19719 z m 1.86136,0.176156 c 0.01577,0 0.02629,-0.01052 0.02629,-0.02629 v -0.78876 c 0,-0.286582 -0.163011,-0.473256 -0.436448,-0.473256 -0.170898,0 -0.291841,0.07362 -0.352312,0.170898 h -0.0026 v -0.115684 c 0,-0.01578 -0.01052,-0.02629 -0.02629,-0.02629 h -0.168268 c -0.01578,0 -0.02629,0.01052 -0.02629,0.02629 v 1.206802 c 0,0.01577 0.01052,0.02629 0.02629,0.02629 h 0.168268 c 0.01578,0 0.02629,-0.01052 0.02629,-0.02629 v -0.749322 c 0,-0.186673 0.118314,-0.307616 0.289212,-0.307616 0.189303,0 0.281325,0.118314 0.281325,0.320762 v 0.736176 c 0,0.01577 0.01052,0.02629 0.02629,0.02629 z m 0.625634,-1.54334 c 0.01577,0 0.02629,-0.01052 0.02629,-0.02629 v -0.191932 c 0,-0.01577 -0.01052,-0.02629 -0.02629,-0.02629 h -0.178786 c -0.01578,0 -0.02629,0.01052 -0.02629,0.02629 v 0.191932 c 0,0.01577 0.01052,0.02629 0.02629,0.02629 z m -0.0053,1.54334 c 0.01577,0 0.02629,-0.01052 0.02629,-0.02629 v -1.206802 c 0,-0.01578 -0.01052,-0.02629 -0.02629,-0.02629 h -0.168269 c -0.01577,0 -0.02629,0.01052 -0.02629,0.02629 v 1.206802 c 0,0.01577 0.01052,0.02629 0.02629,0.02629 z m 1.424908,0 c 0.01578,0 0.02629,-0.01052 0.02629,-0.02629 v -0.78876 c 0,-0.286582 -0.16301,-0.473256 -0.436447,-0.473256 -0.170898,0 -0.291841,0.07362 -0.352313,0.170898 h -0.0026 v -0.115684 c 0,-0.01578 -0.01052,-0.02629 -0.02629,-0.02629 H 15.96009 c -0.01577,0 -0.02629,0.01052 -0.02629,0.02629 v 1.206802 c 0,0.01577 0.01052,0.02629 0.02629,0.02629 h 0.168269 c 0.01578,0 0.02629,-0.01052 0.02629,-0.02629 v -0.749322 c 0,-0.186673 0.118314,-0.307616 0.289212,-0.307616 0.189302,0 0.281324,0.118314 0.281324,0.320762 v 0.736176 c 0,0.01577 0.01052,0.02629 0.02629,0.02629 z m 0.83597,0.502177 c 0.354942,0 0.549503,-0.199819 0.549503,-0.55739 v -1.177881 c 0,-0.01578 -0.01052,-0.02629 -0.02629,-0.02629 H 18.11066 c -0.01577,0 -0.02629,0.01052 -0.02629,0.02629 v 0.118314 h -0.0026 c -0.05784,-0.105168 -0.16564,-0.173528 -0.349684,-0.173528 -0.212965,0 -0.3602,0.107798 -0.423301,0.304988 -0.03155,0.09465 -0.04207,0.186673 -0.04207,0.331279 0,0.144606 0.01052,0.236628 0.04207,0.331279 0.0631,0.19719 0.210336,0.304987 0.423301,0.304987 0.184044,0 0.291842,-0.06836 0.349684,-0.173527 h 0.0026 v 0.147235 c 0,0.23137 -0.110426,0.339167 -0.318133,0.339167 -0.120943,0 -0.210336,-0.04733 -0.2971,-0.126202 -0.01315,-0.01315 -0.02629,-0.01315 -0.03944,0 L 17.3219,19.865252 c -0.01315,0.01315 -0.01315,0.02366 -0.0026,0.03681 0.08413,0.110427 0.260291,0.186673 0.436447,0.186673 z m 0.03155,-0.7204 c -0.136719,0 -0.223482,-0.06573 -0.26555,-0.189303 -0.02103,-0.0631 -0.03155,-0.141977 -0.03155,-0.244515 0,-0.102539 0.01052,-0.178786 0.03155,-0.244516 0.04207,-0.120943 0.128831,-0.186673 0.26555,-0.186673 0.13146,0 0.223482,0.05784 0.268178,0.186673 0.02103,0.06573 0.02892,0.136718 0.02892,0.244516 0,0.107797 -0.0079,0.181414 -0.02892,0.244515 -0.0447,0.128831 -0.136718,0.189303 -0.268178,0.189303 z"
         id="path146" /><path
         style="font-family:'DIN Next W1G';-inkscape-font-specification:'DIN Next W1G';letter-spacing:0.0714375px;fill:#000000;stroke:none"
         d="m 7.008481,21.723963 c 0,0.01578 0.010517,0.02629 0.026292,0.02629 h 1.0753428 c 0.015775,0 0.026292,-0.01052 0.026292,-0.02629 v -0.165639 c 0,-0.01577 -0.010517,-0.02629 -0.026292,-0.02629 H 7.258255 c -0.010517,0 -0.015775,-0.0053 -0.015775,-0.01578 v -0.544245 c 0,-0.01052 0.00526,-0.01577 0.015775,-0.01577 h 0.72303 c 0.015775,0 0.026292,-0.01052 0.026292,-0.02629 v -0.16564 c 0,-0.01578 -0.010517,-0.02629 -0.026292,-0.02629 h -0.72303 c -0.010517,0 -0.015775,-0.0053 -0.015775,-0.01577 v -0.52584 c 0,-0.01052 0.00526,-0.01577 0.015775,-0.01577 h 0.8518608 c 0.015775,0 0.026292,-0.01052 0.026292,-0.02629 v -0.16564 c 0,-0.01577 -0.010517,-0.02629 -0.026292,-0.02629 H 7.034773 c -0.015775,0 -0.026292,0.01052 -0.026292,0.02629 z m 2.5034468,0.02629 c 0.015775,0 0.026292,-0.01052 0.026292,-0.02629 v -1.735272 c 0,-0.01577 -0.010517,-0.02629 -0.026292,-0.02629 H 9.343659 c -0.015775,0 -0.026292,0.01052 -0.026292,0.02629 v 0.646784 h -0.00263 c -0.060472,-0.09991 -0.1682688,-0.173528 -0.3575712,-0.173528 -0.2182236,0 -0.3707172,0.102539 -0.433818,0.302358 -0.03418,0.09991 -0.044696,0.19982 -0.044696,0.354942 0,0.157752 0.010517,0.257662 0.044696,0.357572 0.063101,0.199819 0.2155944,0.302358 0.433818,0.302358 0.1893024,0 0.2970996,-0.07625 0.3575712,-0.176157 h 0.00263 v 0.120943 c 0,0.01578 0.010517,0.02629 0.026292,0.02629 z M 9.0097506,21.574099 c -0.1393476,0 -0.2339988,-0.06836 -0.276066,-0.191932 -0.021034,-0.06573 -0.028921,-0.147235 -0.028921,-0.26292 0,-0.113055 0.00789,-0.19456 0.028921,-0.26292 0.042067,-0.123572 0.1367184,-0.189302 0.276066,-0.189302 0.1393476,0 0.236628,0.0631 0.2786952,0.189302 0.021034,0.0631 0.028921,0.136719 0.028921,0.26292 0,0.126202 -0.00789,0.202449 -0.028921,0.26292 -0.042067,0.126202 -0.1393476,0.191932 -0.2786952,0.191932 z m 1.9907534,0.176156 c 0.01578,0 0.02629,-0.01052 0.02629,-0.02629 v -1.206802 c 0,-0.01578 -0.01052,-0.02629 -0.02629,-0.02629 h -0.168268 c -0.01578,0 -0.02629,0.01052 -0.02629,0.02629 v 0.746692 c 0,0.189303 -0.113056,0.310246 -0.283954,0.310246 -0.186673,0 -0.278695,-0.118314 -0.278695,-0.323392 v -0.733546 c 0,-0.01578 -0.01052,-0.02629 -0.02629,-0.02629 h -0.168269 c -0.01577,0 -0.02629,0.01052 -0.02629,0.02629 v 0.78613 c 0,0.286583 0.160381,0.475886 0.436447,0.475886 0.163011,0 0.278695,-0.06836 0.344425,-0.173528 h 0.0026 v 0.118314 c 0,0.01578 0.01052,0.02629 0.02629,0.02629 z m 0.452671,-0.631008 c 0,0.141977 0.01577,0.244516 0.03944,0.320763 0.07099,0.218223 0.255032,0.339167 0.496918,0.339167 0.191932,0 0.339167,-0.08151 0.431189,-0.212966 0.0079,-0.01315 0.0079,-0.02366 -0.0079,-0.03681 l -0.115685,-0.09465 c -0.01315,-0.01052 -0.02629,-0.01052 -0.03681,0.0026 -0.07362,0.09202 -0.144606,0.136718 -0.270808,0.136718 -0.136718,0 -0.239257,-0.06573 -0.281324,-0.19719 -0.02103,-0.06573 -0.02892,-0.144606 -0.02892,-0.257662 0,-0.110426 0.0079,-0.189302 0.02892,-0.255032 0.04207,-0.13146 0.144606,-0.19719 0.281324,-0.19719 0.126202,0 0.19719,0.0447 0.270808,0.136718 0.01052,0.01315 0.02366,0.01315 0.03681,0.0026 l 0.115685,-0.09465 c 0.01578,-0.01315 0.01578,-0.02366 0.0079,-0.03681 -0.09202,-0.13146 -0.239257,-0.212966 -0.431189,-0.212966 -0.241886,0 -0.42593,0.120944 -0.496918,0.339167 -0.02366,0.07625 -0.03944,0.178786 -0.03944,0.318133 z m 2.27471,0.631008 c 0.01577,0 0.02629,-0.01052 0.02629,-0.02629 v -0.833456 c 0,-0.310246 -0.136719,-0.42856 -0.49429,-0.42856 -0.186673,0 -0.333908,0.04996 -0.42856,0.123573 -0.01052,0.01052 -0.01315,0.02103 -0.0053,0.03681 l 0.07099,0.120943 c 0.0079,0.01315 0.02366,0.01315 0.03681,0.0026 0.07362,-0.05258 0.163011,-0.08939 0.304987,-0.08939 0.233999,0 0.302358,0.07362 0.302358,0.247145 v 0.09202 c 0,0.01052 -0.0053,0.01578 -0.01578,0.01578 h -0.286583 c -0.307616,0 -0.49166,0.123573 -0.49166,0.389122 0,0.255032 0.184044,0.378605 0.423301,0.378605 0.191932,0 0.315504,-0.07099 0.373347,-0.16564 h 0.0026 v 0.110426 c 0,0.01578 0.01052,0.02629 0.02629,0.02629 z m -0.504807,-0.160381 c -0.168269,0 -0.26292,-0.06836 -0.26292,-0.19719 0,-0.141977 0.09465,-0.205077 0.312875,-0.205077 h 0.252403 c 0.01052,0 0.01578,0.0053 0.01578,0.01578 v 0.139347 c 0,0.155123 -0.120943,0.247145 -0.318133,0.247145 z m 1.485945,0.173527 c 0.01577,0 0.02629,-0.01052 0.02629,-0.02629 v -0.152493 c 0,-0.01578 -0.01052,-0.02629 -0.02629,-0.02629 h -0.05521 c -0.113056,0 -0.160382,-0.03418 -0.160382,-0.160381 v -0.712514 c 0,-0.01052 0.0053,-0.01577 0.01578,-0.01577 h 0.199819 c 0.01577,0 0.02629,-0.01052 0.02629,-0.02629 v -0.126201 c 0,-0.01578 -0.01052,-0.02629 -0.02629,-0.02629 h -0.199819 c -0.01052,0 -0.01578,-0.0053 -0.01578,-0.01578 V 20.12016 c 0,-0.01578 -0.01052,-0.02629 -0.02629,-0.02629 h -0.168268 c -0.01578,0 -0.02629,0.01052 -0.02629,0.02629 v 0.354942 c 0,0.01052 -0.0053,0.01578 -0.01578,0.01578 h -0.105168 c -0.01577,0 -0.02629,0.01052 -0.02629,0.02629 v 0.126201 c 0,0.01578 0.01052,0.02629 0.02629,0.02629 H 14.2568 c 0.01052,0 0.01578,0.0053 0.01578,0.01577 v 0.720401 c 0,0.247145 0.09465,0.357571 0.339166,0.357571 z m 0.639344,-1.556486 c 0.01578,0 0.02629,-0.01052 0.02629,-0.02629 v -0.191932 c 0,-0.01577 -0.01052,-0.02629 -0.02629,-0.02629 h -0.178785 c -0.01577,0 -0.02629,0.01052 -0.02629,0.02629 v 0.191932 c 0,0.01577 0.01052,0.02629 0.02629,0.02629 z m -0.0053,1.54334 c 0.01577,0 0.02629,-0.01052 0.02629,-0.02629 v -1.206802 c 0,-0.01578 -0.01052,-0.02629 -0.02629,-0.02629 H 15.17484 c -0.01577,0 -0.02629,0.01052 -0.02629,0.02629 v 1.206802 c 0,0.01578 0.01052,0.02629 0.02629,0.02629 z m 0.991656,0.02892 c 0.244515,0 0.428559,-0.126202 0.496919,-0.339167 0.02892,-0.08676 0.04207,-0.173527 0.04207,-0.320763 0,-0.144606 -0.01315,-0.231369 -0.04207,-0.318133 -0.06836,-0.215594 -0.252404,-0.339167 -0.496919,-0.339167 -0.244516,0 -0.42856,0.123573 -0.496919,0.339167 -0.02892,0.08676 -0.04207,0.173527 -0.04207,0.318133 0,0.147236 0.01315,0.233999 0.04207,0.320763 0.06836,0.212965 0.252403,0.339167 0.496919,0.339167 z m 0,-0.205078 c -0.139348,0 -0.241887,-0.07099 -0.283954,-0.19719 -0.02103,-0.06836 -0.02892,-0.136718 -0.02892,-0.257662 0,-0.120943 0.0079,-0.186673 0.02892,-0.255032 0.04207,-0.126202 0.144606,-0.19719 0.283954,-0.19719 0.139347,0 0.241886,0.07099 0.283953,0.19719 0.02103,0.06836 0.02892,0.134089 0.02892,0.255032 0,0.120944 -0.0079,0.189303 -0.02892,0.257662 -0.04207,0.126202 -0.144606,0.19719 -0.283953,0.19719 z m 1.951317,0.176156 c 0.01577,0 0.02629,-0.01052 0.02629,-0.02629 v -0.78876 c 0,-0.286582 -0.163011,-0.473256 -0.436447,-0.473256 -0.170898,0 -0.291841,0.07362 -0.352313,0.170898 h -0.0026 v -0.115684 c 0,-0.01578 -0.01052,-0.02629 -0.02629,-0.02629 h -0.168269 c -0.01577,0 -0.02629,0.01052 -0.02629,0.02629 v 1.206802 c 0,0.01578 0.01052,0.02629 0.02629,0.02629 h 0.168269 c 0.01577,0 0.02629,-0.01052 0.02629,-0.02629 v -0.749322 c 0,-0.186673 0.118314,-0.307616 0.289212,-0.307616 0.189302,0 0.281324,0.118314 0.281324,0.320762 v 0.736176 c 0,0.01578 0.01052,0.02629 0.02629,0.02629 z"
         id="path147" /></g></g></svg>
