<?xml version="1.0" encoding="UTF-8" standalone="no"?>
<!-- Created with Inkscape (http://www.inkscape.org/) -->

<svg
   width="25.389118mm"
   height="7.1976376mm"
   viewBox="0 0 25.389118 7.1976376"
   version="1.1"
   id="svg1"
   xml:space="preserve"
   xmlns="http://www.w3.org/2000/svg"
   xmlns:svg="http://www.w3.org/2000/svg"><defs
     id="defs1" /><g
     id="layer1"
     transform="translate(-34.382363,-0.1277375)"><rect
       style="fill:#808080;fill-opacity:0.00648098;stroke-width:0.3;stroke-linecap:square;stroke-linejoin:round;stroke-miterlimit:0"
       id="rect150"
       width="25.38912"
       height="7.1976376"
       x="34.382366"
       y="0.12773751" /><g
       id="g167"
       style="stroke:#6f6f6f;stroke-width:0.307056;stroke-opacity:1"
       transform="matrix(-0.97701946,0,0,0.97701946,52.875798,-50.296934)"><path
         style="fill:none;fill-opacity:1;stroke:#6f6f6f;stroke-width:0.307056;stroke-linecap:round;stroke-linejoin:round;stroke-miterlimit:0;stroke-opacity:1"
         d="m 13.984753,54.912635 c 0.423,0 0.846001,0 1.269001,0"
         id="path166" /><path
         style="fill:none;fill-opacity:1;stroke:#6f6f6f;stroke-width:0.307056;stroke-linecap:round;stroke-linejoin:round;stroke-miterlimit:0;stroke-opacity:1"
         d="m 15.253754,54.912635 c 0.08561,-0.165713 0.171231,-0.331427 0.256846,-0.49714"
         id="path167" /></g><g
       id="g169"
       style="fill:#000000;fill-opacity:1;stroke:#6f6f6f;stroke-width:0.307056;stroke-opacity:1"
       transform="matrix(0.97701946,0,0,0.97701946,23.325973,-50.81394)"><path
         style="fill:#000000;fill-opacity:1;stroke:#6f6f6f;stroke-width:0.307056;stroke-linecap:round;stroke-linejoin:round;stroke-miterlimit:0;stroke-opacity:1"
         d="m 13.984753,54.912635 c 0.423,0 0.846001,0 1.269001,0"
         id="path168" /><path
         style="fill:#000000;fill-opacity:1;stroke:#6f6f6f;stroke-width:0.307056;stroke-linecap:round;stroke-linejoin:round;stroke-miterlimit:0;stroke-opacity:1"
         d="m 15.253754,54.912635 c 0.110401,-0.312474 0.220801,-0.62495 0.331202,-0.937424"
         id="path169" /></g><ellipse
       style="fill:#000000;fill-opacity:1;stroke:#6f6f6f;stroke-width:0.200001;stroke-linecap:round;stroke-linejoin:round;stroke-miterlimit:0;stroke-opacity:1"
       id="ellipse169"
       cx="38.493507"
       cy="1.9836351"
       rx="0.38806033"
       ry="0.38724822" /><g
       id="g170"
       style="fill:#000000;fill-opacity:1;stroke:#6f6f6f;stroke-width:0.307056;stroke-opacity:1"
       transform="matrix(0.97701946,0,0,0.97701946,23.152404,-49.430793)"><path
         style="fill:#000000;fill-opacity:1;stroke:#6f6f6f;stroke-width:0.307056;stroke-linecap:round;stroke-linejoin:round;stroke-miterlimit:0;stroke-opacity:1"
         d="m 13.984753,54.912635 c 0.423,0 0.846001,0 1.269001,0"
         id="path170" /></g><ellipse
       style="fill:#000000;fill-opacity:1;stroke:#6f6f6f;stroke-width:0.2;stroke-linecap:round;stroke-linejoin:round;stroke-miterlimit:0;stroke-opacity:1"
       id="ellipse170"
       cx="38.405994"
       cy="4.1852989"
       rx="0.3893621"
       ry="0.38854787" /><ellipse
       style="fill:#000000;fill-opacity:1;stroke:#6f6f6f;stroke-width:0.2;stroke-linecap:round;stroke-linejoin:round;stroke-miterlimit:0;stroke-opacity:1"
       id="ellipse171"
       cx="39.344353"
       cy="3.3543148"
       rx="0.3893621"
       ry="0.38854787" /><path
       style="font-style:italic;font-weight:900;font-size:25.3333px;line-height:0.8;font-family:'DIN Next W1G';-inkscape-font-specification:'DIN Next W1G Heavy Italic';letter-spacing:2.31px;white-space:pre;fill:#ffffff;fill-opacity:1;stroke-width:0.300001;stroke-linecap:square;stroke-linejoin:round;stroke-miterlimit:0"
       d="m 35.592857,5.8683864 c -0.0065,0.039292 0.01965,0.065487 0.05894,0.065487 h 2.829054 c 0.03929,0 0.06549,-0.026194 0.07204,-0.065487 l 0.189913,-1.0412503 c 0.0065,-0.039292 -0.01965,-0.065487 -0.05894,-0.065487 h -1.538952 c -0.01965,0 -0.03274,-0.013106 -0.0262,-0.039293 l 0.563191,-3.1761366 c 0.0065,-0.039292 -0.01965,-0.065487 -0.05894,-0.065487 h -1.19187 c -0.03929,0 -0.06549,0.026194 -0.07204,0.065487 z m 7.558444,0.065487 c 0.04584,0 0.05894,-0.039293 0.05239,-0.072037 l -0.432217,-1.643731 c 0.543545,-0.2815977 0.897177,-0.8120434 0.897177,-1.538954 0,-0.694166 -0.458411,-1.1984176 -1.427624,-1.1984176 h -1.800903 c -0.03274,0 -0.05894,0.026194 -0.06549,0.065487 l -0.766202,4.322166 c -0.0065,0.039292 0.01965,0.065487 0.05239,0.065487 h 1.19187 c 0.03929,0 0.06549,-0.026194 0.07204,-0.065487 l 0.248852,-1.3752363 c 0.0065,-0.026194 0.01965,-0.03929 0.03929,-0.03929 h 0.353632 l 0.314339,1.4145262 c 0.0131,0.04584 0.03274,0.065487 0.09168,0.065487 z M 41.802261,3.3864158 H 41.39624 c -0.01965,0 -0.03274,-0.013106 -0.0262,-0.039293 l 0.130974,-0.7269106 c 0,-0.026194 0.01965,-0.039293 0.03929,-0.039293 h 0.41257 c 0.242303,0 0.373278,0.1113296 0.373278,0.2946935 0,0.333986 -0.229205,0.5108021 -0.523899,0.5108021 z m 2.398049,2.4819706 c -0.0065,0.039292 0.01965,0.065487 0.05239,0.065487 h 2.887992 c 0.03929,0 0.06549,-0.026194 0.07204,-0.065487 l 0.170266,-0.9692133 c 0.0065,-0.039292 -0.01311,-0.065487 -0.05239,-0.065487 h -1.59789 c -0.0262,0 -0.03274,-0.013106 -0.03274,-0.039292 l 0.09823,-0.5304483 c 0.0065,-0.026194 0.01965,-0.039293 0.03929,-0.039293 h 1.283552 c 0.03929,0 0.07204,-0.026194 0.07858,-0.065487 l 0.163718,-0.9430191 c 0.0065,-0.039293 -0.01311,-0.065487 -0.05239,-0.065487 h -1.283551 c -0.01965,0 -0.03274,-0.013106 -0.0262,-0.039292 l 0.08514,-0.4911558 c 0,-0.026194 0.01965,-0.039293 0.03929,-0.039293 h 1.610988 c 0.03274,0 0.05894,-0.026194 0.06549,-0.065487 L 47.97893,1.5462204 c 0.0065,-0.039292 -0.01311,-0.065487 -0.05239,-0.065487 H 45.032 c -0.03274,0 -0.05894,0.026194 -0.06549,0.065487 z"
       id="path150"
       aria-label="LRE" /><g
       id="g154"
       style="fill:#6f6f6f;fill-opacity:1;stroke-width:2.7696"
       transform="matrix(0.05429708,0,0,0.05402213,39.874635,0.81824774)"><line
         x1="16"
         x2="25.875"
         y1="35"
         y2="35"
         fill="#ea5a47"
         stroke="none"
         id="line150"
         style="fill:#6f6f6f;fill-opacity:1;stroke-width:2.7696" /><path
         fill="#ea5a47"
         stroke="none"
         d="m 25.875,35 c 3.4167,0 4.75,-2.9167 4.75,-6.1667"
         id="path151"
         style="fill:#6f6f6f;fill-opacity:1;stroke-width:2.7696" /><line
         x1="16"
         x2="19.75"
         y1="45.5"
         y2="45.5"
         fill="#ea5a47"
         stroke="none"
         id="line151"
         style="fill:#6f6f6f;fill-opacity:1;stroke-width:2.7696" /><line
         x1="35.299702"
         x2="35.299702"
         y1="45.5"
         y2="39.4375"
         fill="#ea5a47"
         stroke="none"
         id="line152"
         style="fill:#6f6f6f;fill-opacity:1;stroke-width:2.7696" /><path
         fill="#ea5a47"
         stroke="none"
         d="m 35.2997,39.4375 c 0,-2.2455 1.2003,-5.25 5.0756,-5.25"
         id="path152"
         style="fill:#6f6f6f;fill-opacity:1;stroke-width:2.7696" /><line
         x1="58.458302"
         x2="49.875"
         y1="34.541698"
         y2="34.541698"
         fill="#ea5a47"
         stroke="none"
         id="line153"
         style="fill:#6f6f6f;fill-opacity:1;stroke-width:2.7696" /><path
         fill="#ffa7c0"
         stroke="none"
         d="m 44.470096,45.5 c 0,0 -3.930896,10.5 -12.053396,10.5 H 16 C 8.7917,56 8.3333,45.5 16,45.5 8.7917,45.5 8.3333,35 16,35 7.8333,27.75 17.875,21.4375 22.5,26.3125 17.701,19.6875 27.875,16 31.375,21.3125 30.9627,16 36.2222,15.0417 41.1003,19.024 l -0.4336,0.351 C 43.0417,17 50.8443,18.2917 50.8443,24.6891 l -2.2192,1.6234 c 6.8646,-6.8646 14.2083,4.1875 8.5,8.2292 h 1.3333 c 4.75,0 5.2917,10.9583 -1.3333,10.9583 H 29.2917"
         id="path153"
         style="fill:#6f6f6f;fill-opacity:1;stroke-width:2.7696" /><path
         fill="#ea5a47"
         stroke="none"
         d="M 40.6667,19.375 C 38.25,21.7917 40.3845,22.5532 36.396,26.5417"
         id="path154"
         style="fill:#6f6f6f;fill-opacity:1;stroke-width:2.7696" /></g><g
       id="g161"
       style="stroke-width:2.7696"
       transform="matrix(0.05429708,0,0,0.05402213,39.874635,0.81824774)"><line
         x1="16"
         x2="25.875"
         y1="35"
         y2="35"
         fill="none"
         stroke="#000000"
         stroke-linecap="round"
         stroke-linejoin="round"
         stroke-miterlimit="10"
         stroke-width="8.74652"
         id="line157"
         style="stroke-width:2.7696" /><path
         fill="none"
         stroke="#000000"
         stroke-linecap="round"
         stroke-linejoin="round"
         stroke-miterlimit="10"
         stroke-width="8.74652"
         d="m 25.875,35 c 3.4167,0 4.75,-2.9167 4.75,-6.1667"
         id="path157"
         style="stroke-width:2.7696" /><line
         x1="16"
         x2="19.75"
         y1="45.5"
         y2="45.5"
         fill="none"
         stroke="#000000"
         stroke-linecap="round"
         stroke-linejoin="round"
         stroke-miterlimit="10"
         stroke-width="8.74652"
         id="line158"
         style="stroke-width:2.7696" /><line
         x1="35.299702"
         x2="35.299702"
         y1="45.5"
         y2="39.4375"
         fill="none"
         stroke="#000000"
         stroke-linecap="round"
         stroke-linejoin="round"
         stroke-miterlimit="10"
         stroke-width="8.74652"
         id="line159"
         style="stroke-width:2.7696" /><path
         fill="none"
         stroke="#000000"
         stroke-linecap="round"
         stroke-linejoin="round"
         stroke-miterlimit="10"
         stroke-width="8.74652"
         d="m 35.2997,39.4375 c 0,-2.2455 1.2003,-5.25 5.0756,-5.25"
         id="path159"
         style="stroke-width:2.7696" /><line
         x1="58.458302"
         x2="49.875"
         y1="34.541698"
         y2="34.541698"
         fill="none"
         stroke="#000000"
         stroke-linecap="round"
         stroke-linejoin="round"
         stroke-miterlimit="10"
         stroke-width="8.74652"
         id="line160"
         style="stroke-width:2.7696" /><path
         fill="none"
         stroke="#000000"
         stroke-linecap="round"
         stroke-linejoin="round"
         stroke-miterlimit="10"
         stroke-width="8.74652"
         d="m 44.182721,45.5 c 0,0 -3.643521,10.5 -11.766021,10.5 H 16 C 8.7917,56 8.3333,45.5 16,45.5 8.7917,45.5 8.3333,35 16,35 7.8333,27.75 17.875,21.4375 22.5,26.3125 17.701,19.6875 27.875,16 31.375,21.3125 30.9627,16 36.2222,15.0417 41.1003,19.024 l -0.4336,0.351 C 43.0417,17 50.8443,18.2917 50.8443,24.6891 l -2.2192,1.6234 c 6.8646,-6.8646 14.2083,4.1875 8.5,8.2292 h 1.3333 c 4.75,0 5.2917,10.9583 -1.3333,10.9583 H 29.2917"
         id="path160"
         style="stroke-width:2.7696" /><path
         fill="none"
         stroke="#000000"
         stroke-linecap="round"
         stroke-linejoin="round"
         stroke-miterlimit="10"
         stroke-width="8.74652"
         d="M 40.6667,19.375 C 38.25,21.7917 40.3845,22.5532 36.396,26.5417"
         id="path161"
         style="stroke-width:2.7696" /></g><rect
       style="fill:#6f6f6f;fill-opacity:1;stroke:#000000;stroke-width:0.165014;stroke-linecap:round;stroke-linejoin:round;stroke-miterlimit:0;stroke-opacity:1"
       id="rect162"
       width="0.97794306"
       height="4.7107925"
       x="-45.434837"
       y="-5.8034682"
       rx="0.38002101"
       ry="0.18668161"
       transform="matrix(-0.98737184,-0.15841987,-0.17678627,0.98424926,0,0)" /><path
       style="fill:none;fill-opacity:1;stroke:#000000;stroke-width:0.151373;stroke-linecap:round;stroke-linejoin:round;stroke-miterlimit:0;stroke-opacity:1"
       d="m 39.257271,57.437194 c 0.217049,0.140489 0.501911,0.12727 0.721522,0"
       id="path162"
       transform="matrix(-1.268547,-0.20353331,-0.16351967,0.91038809,104.35681,-38.794279)" /><path
       style="fill:none;fill-opacity:1;stroke:#000000;stroke-width:0.151373;stroke-linecap:round;stroke-linejoin:round;stroke-miterlimit:0;stroke-opacity:1"
       d="m 39.257271,57.437194 c 0.217049,0.140489 0.501911,0.12727 0.721522,0"
       id="path163"
       transform="matrix(-1.268547,-0.20353331,0.16351967,-0.91038809,86.187387,62.36313)" /><rect
       style="fill:#6f6f6f;fill-opacity:1;stroke:#000000;stroke-width:0.165023;stroke-linecap:round;stroke-linejoin:round;stroke-miterlimit:0;stroke-opacity:1"
       id="rect163"
       width="0.62160182"
       height="3.7820985"
       x="43.200588"
       y="-9.0731173"
       rx="0.38021806"
       ry="0.18589996"
       transform="matrix(0.96637724,0.25712842,-0.28029459,0.95991403,0,0)" /><path
       style="fill:none;fill-opacity:1;stroke:#000000;stroke-width:0.211661;stroke-linecap:round;stroke-linejoin:round;stroke-miterlimit:0;stroke-opacity:1"
       d="m 39.257271,57.437194 c 0.216297,0.139557 0.502384,0.127826 0.721522,0"
       id="path164"
       transform="matrix(0.78917117,0.20997839,-0.20864183,0.71452761,24.375523,-43.738425)" /><path
       style="fill:none;fill-opacity:1;stroke:#000000;stroke-width:0.211661;stroke-linecap:round;stroke-linejoin:round;stroke-miterlimit:0;stroke-opacity:1"
       d="m 39.257271,57.437194 c 0.216297,0.139557 0.502384,0.127826 0.721522,0"
       id="path165"
       transform="matrix(0.78917117,0.20997839,0.20864184,-0.7145276,1.1923689,35.656021)" /><g
       id="g173"
       style="font-size:2.11667px;line-height:0.7;font-family:'Clear Sans';-inkscape-font-specification:'Clear Sans';letter-spacing:0px;fill:#ffffff;fill-opacity:1;stroke:#000000;stroke-width:0.165;stroke-linecap:round;stroke-linejoin:round;stroke-miterlimit:0"
       aria-label="Language&#10;Reasoning&#10;Education"
       transform="translate(34.382368,0.1277375)"><path
         style="font-family:'DIN Next W1G';-inkscape-font-specification:'DIN Next W1G';letter-spacing:0.0876399px;fill:#ffffff;fill-opacity:1;stroke:none"
         d="m 14.681092,2.6835631 c 0,0.0127 0.0085,0.021167 0.02117,0.021167 h 0.865718 c 0.0127,0 0.02117,-0.00847 0.02117,-0.021167 V 2.5502129 c 0,-0.0127 -0.0085,-0.021167 -0.02117,-0.021167 h -0.685801 c -0.0085,0 -0.0127,-0.00423 -0.0127,-0.0127 V 1.286561 c 0,-0.0127 -0.0085,-0.021167 -0.02117,-0.021167 h -0.14605 c -0.0127,0 -0.02117,0.00847 -0.02117,0.021167 z m 1.960893,0.021167 c 0.0127,0 0.02117,-0.00847 0.02117,-0.021167 V 2.0125787 c 0,-0.249767 -0.110067,-0.3450172 -0.397934,-0.3450172 -0.150283,0 -0.268817,0.040217 -0.345017,0.099484 -0.0085,0.00847 -0.01058,0.016933 -0.0042,0.029633 l 0.05715,0.097367 c 0.0064,0.010583 0.01905,0.010583 0.02963,0.00212 0.05927,-0.042333 0.131234,-0.071967 0.245534,-0.071967 0.188383,0 0.243417,0.059267 0.243417,0.198967 v 0.074083 c 0,0.00847 -0.0042,0.0127 -0.0127,0.0127 h -0.230717 c -0.247651,0 -0.395817,0.099483 -0.395817,0.3132671 0,0.205317 0.148166,0.3048005 0.340783,0.3048005 0.154517,0 0.254001,-0.05715 0.300568,-0.1333502 h 0.0021 v 0.0889 c 0,0.0127 0.0085,0.021167 0.02117,0.021167 z m -0.4064,-0.1291169 c -0.135467,0 -0.211667,-0.055033 -0.211667,-0.1587502 0,-0.1143002 0.0762,-0.1651003 0.251884,-0.1651003 h 0.2032 c 0.0085,0 0.0127,0.00423 0.0127,0.0127 V 2.376646 c 0,0.1248835 -0.09737,0.1989669 -0.256117,0.1989672 z m 1.647623,0.1291169 c 0.0127,0 0.02117,-0.00847 0.02117,-0.021167 v -0.635001 c 0,-0.230717 -0.131233,-0.3810006 -0.351367,-0.3810006 -0.137584,0 -0.234951,0.059267 -0.283634,0.1375836 h -0.0021 v -0.093133 c 0,-0.0127 -0.0085,-0.021167 -0.02117,-0.021167 H 17.11064 c -0.0127,0 -0.02117,0.00847 -0.02117,0.021167 v 0.9715515 c 0,0.0127 0.0085,0.021167 0.02117,0.021167 h 0.135467 c 0.0127,0 0.02117,-0.00847 0.02117,-0.021167 V 2.0803122 c 0,-0.1502836 0.09525,-0.2476504 0.232834,-0.2476504 0.1524,0 0.226484,0.09525 0.226484,0.2582337 v 0.5926676 c 0,0.0127 0.0085,0.021167 0.02117,0.021167 z m 0.775559,0.4042839 c 0.285751,0 0.442384,-0.1608669 0.442384,-0.448734 V 1.7120116 c 0,-0.0127 -0.0085,-0.021167 -0.02117,-0.021167 h -0.135467 c -0.0127,0 -0.02117,0.00847 -0.02117,0.021167 v 0.09525 h -0.0021 c -0.04657,-0.084667 -0.13335,-0.1397003 -0.281517,-0.1397003 -0.17145,0 -0.289983,0.086784 -0.340783,0.2455338 -0.0254,0.0762 -0.03387,0.1502835 -0.03387,0.2667004 0,0.1164168 0.0085,0.1905003 0.03387,0.2667004 0.0508,0.1587502 0.169333,0.2455337 0.340783,0.2455337 0.148167,0 0.234951,-0.055033 0.281517,-0.1397002 h 0.0021 v 0.1185335 c 0,0.1862669 -0.0889,0.2730504 -0.256117,0.2730504 -0.09737,0 -0.169334,-0.0381 -0.239184,-0.1016002 -0.01058,-0.010583 -0.02117,-0.010583 -0.03175,0 l -0.08678,0.086784 c -0.01058,0.010583 -0.01058,0.01905 -0.0021,0.029633 0.06773,0.0889 0.209551,0.1502835 0.351367,0.1502835 z m 0.0254,-0.5799675 c -0.110066,0 -0.179916,-0.052917 -0.213783,-0.1524002 -0.01693,-0.0508 -0.0254,-0.1143002 -0.0254,-0.1968503 0,-0.08255 0.0085,-0.1439336 0.0254,-0.1968503 0.03387,-0.097367 0.103717,-0.1502836 0.213783,-0.1502836 0.105834,0 0.179917,0.046567 0.215901,0.1502836 0.01693,0.052917 0.02328,0.1100668 0.02328,0.1968503 0,0.086783 -0.0064,0.1460502 -0.02328,0.1968503 -0.03598,0.1037168 -0.110067,0.1524002 -0.215901,0.1524002 z m 1.624341,0.1756836 c 0.0127,0 0.02117,-0.00847 0.02117,-0.021167 V 1.7120116 c 0,-0.0127 -0.0085,-0.021167 -0.02117,-0.021167 h -0.135467 c -0.0127,0 -0.02117,0.00847 -0.02117,0.021167 v 0.6011343 c 0,0.1524002 -0.09102,0.249767 -0.228601,0.249767 -0.150283,0 -0.224367,-0.09525 -0.224367,-0.2603504 V 1.7120116 c 0,-0.0127 -0.0085,-0.021167 -0.02117,-0.021167 h -0.135466 c -0.0127,0 -0.02117,0.00847 -0.02117,0.021167 v 0.6328843 c 0,0.230717 0.129117,0.3831173 0.351367,0.3831173 0.131234,0 0.224367,-0.055033 0.277284,-0.1397002 h 0.0021 v 0.09525 c 0,0.0127 0.0085,0.021167 0.02117,0.021167 z m 1.194658,0 c 0.0127,0 0.02117,-0.00847 0.02117,-0.021167 V 2.0125787 c 0,-0.249767 -0.110067,-0.3450172 -0.397934,-0.3450172 -0.150283,0 -0.268817,0.040217 -0.345017,0.099484 -0.0085,0.00847 -0.01058,0.016933 -0.0042,0.029633 l 0.05715,0.097367 c 0.0064,0.010583 0.01905,0.010583 0.02963,0.00212 0.05927,-0.042333 0.131234,-0.071967 0.245534,-0.071967 0.188384,0 0.243417,0.059267 0.243417,0.198967 v 0.074083 c 0,0.00847 -0.0042,0.0127 -0.0127,0.0127 h -0.230717 c -0.24765,0 -0.395817,0.099483 -0.395817,0.3132671 0,0.205317 0.148167,0.3048005 0.340784,0.3048005 0.154516,0 0.254,-0.05715 0.300567,-0.1333502 h 0.0021 v 0.0889 c 0,0.0127 0.0085,0.021167 0.02117,0.021167 z M 21.096765,2.5756129 c -0.135467,0 -0.211667,-0.055033 -0.211667,-0.1587502 0,-0.1143002 0.0762,-0.1651003 0.251884,-0.1651003 h 0.2032 c 0.0085,0 0.0127,0.00423 0.0127,0.0127 V 2.376646 c 0,0.1248835 -0.09737,0.1989669 -0.256117,0.1989669 z m 1.184073,0.5334008 c 0.28575,0 0.442384,-0.1608669 0.442384,-0.448734 V 1.7120116 c 0,-0.0127 -0.0085,-0.021167 -0.02117,-0.021167 h -0.135467 c -0.0127,0 -0.02117,0.00847 -0.02117,0.021167 v 0.09525 h -0.0021 c -0.04657,-0.084667 -0.13335,-0.1397003 -0.281517,-0.1397003 -0.17145,0 -0.289984,0.086784 -0.340784,0.2455338 -0.0254,0.0762 -0.03387,0.1502835 -0.03387,0.2667004 0,0.1164168 0.0085,0.1905003 0.03387,0.2667004 0.0508,0.1587502 0.169334,0.2455337 0.340784,0.2455337 0.148167,0 0.23495,-0.055033 0.281517,-0.1397002 h 0.0021 v 0.1185335 c 0,0.1862669 -0.0889,0.2730504 -0.256117,0.2730504 -0.09737,0 -0.169334,-0.0381 -0.239184,-0.1016002 -0.01058,-0.010583 -0.02117,-0.010583 -0.03175,0 l -0.08678,0.086784 c -0.01058,0.010583 -0.01058,0.01905 -0.0021,0.029633 0.06773,0.0889 0.20955,0.1502835 0.351367,0.1502835 z m 0.0254,-0.5799675 c -0.110067,0 -0.179917,-0.052917 -0.213784,-0.1524002 -0.01693,-0.0508 -0.0254,-0.1143002 -0.0254,-0.1968503 0,-0.08255 0.0085,-0.1439336 0.0254,-0.1968503 0.03387,-0.097367 0.103717,-0.1502836 0.213784,-0.1502836 0.105833,0 0.179917,0.046567 0.2159,0.1502836 0.01693,0.052917 0.02328,0.1100668 0.02328,0.1968503 0,0.086783 -0.0063,0.1460502 -0.02328,0.1968503 -0.03598,0.1037168 -0.110067,0.1524002 -0.2159,0.1524002 z m 1.23064,0.198967 c 0.177801,0 0.315384,-0.071967 0.395818,-0.173567 0.0085,-0.010583 0.0085,-0.021167 -0.0021,-0.029633 l -0.08678,-0.078317 c -0.01058,-0.00847 -0.02117,-0.00635 -0.03175,0.00423 -0.05503,0.0635 -0.1397,0.1121835 -0.26035,0.1121835 -0.124884,0 -0.2159,-0.059267 -0.256117,-0.1756836 -0.01058,-0.033867 -0.01693,-0.067733 -0.01693,-0.1227668 0,-0.00847 0.0042,-0.0127 0.0127,-0.0127 h 0.641351 c 0.01482,0 0.02328,-0.00847 0.02328,-0.021167 0,-0.1545169 -0.01058,-0.224367 -0.03175,-0.2899837 -0.05715,-0.173567 -0.2032,-0.2730505 -0.397934,-0.2730505 -0.192617,0 -0.340784,0.097367 -0.397934,0.2730505 -0.02117,0.061383 -0.03175,0.1397002 -0.03175,0.256117 0,0.1164169 0.0127,0.1905003 0.03387,0.2561171 0.05503,0.1756836 0.201083,0.2751671 0.4064,0.2751671 z M 23.291345,2.1099456 c -0.0085,0 -0.0127,-0.00423 -0.0127,-0.0127 0,-0.046567 0.0042,-0.08255 0.01482,-0.1143001 0.03387,-0.1016002 0.118534,-0.1587503 0.232834,-0.1587503 0.1143,0 0.198967,0.05715 0.232834,0.1587503 0.01058,0.03175 0.01482,0.067733 0.01482,0.1143001 0,0.00847 -0.0042,0.0127 -0.0127,0.0127 z"
         id="path171" /><path
         style="font-family:'DIN Next W1G';-inkscape-font-specification:'DIN Next W1G';letter-spacing:-0.0185208px;fill:#ffffff;fill-opacity:1;stroke:none"
         d="m 15.684394,4.2349746 c 0.01482,0 0.02117,-0.0127 0.0127,-0.0254 L 15.390177,3.6020903 c 0.173567,-0.055033 0.283634,-0.1968503 0.283634,-0.3915839 0,-0.2497671 -0.182034,-0.4148673 -0.450851,-0.4148673 h -0.520701 c -0.0127,0 -0.02117,0.00847 -0.02117,0.021167 v 1.3970021 c 0,0.0127 0.0085,0.021167 0.02117,0.021167 h 0.14605 c 0.0127,0 0.02117,-0.00847 0.02117,-0.021167 V 3.6380737 c 0,-0.00847 0.0042,-0.0127 0.0127,-0.0127 h 0.3175 l 0.287868,0.5884342 c 0.0063,0.014817 0.0127,0.021167 0.02752,0.021167 z M 15.218727,3.4496901 h -0.336551 c -0.0085,0 -0.0127,-0.00423 -0.0127,-0.0127 V 2.9840227 c 0,-0.00847 0.0042,-0.0127 0.0127,-0.0127 h 0.336551 c 0.167216,0 0.2667,0.0889 0.2667,0.2391837 0,0.1502835 -0.09948,0.2391837 -0.2667,0.2391837 z m 1.124482,0.8085679 c 0.1778,0 0.315383,-0.071967 0.395817,-0.1735669 0.0085,-0.010583 0.0085,-0.021167 -0.0021,-0.029633 l -0.08678,-0.078317 c -0.01058,-0.00847 -0.02117,-0.00635 -0.03175,0.00423 -0.05503,0.0635 -0.139701,0.1121835 -0.260351,0.1121835 -0.124883,0 -0.2159,-0.059267 -0.256117,-0.1756836 -0.01058,-0.033867 -0.01693,-0.067733 -0.01693,-0.1227668 0,-0.00847 0.0042,-0.0127 0.0127,-0.0127 h 0.641351 c 0.01482,0 0.02328,-0.00847 0.02328,-0.021167 0,-0.1545169 -0.01058,-0.224367 -0.03175,-0.2899838 -0.05715,-0.1735669 -0.2032,-0.2730504 -0.397934,-0.2730504 -0.192617,0 -0.340784,0.097367 -0.397934,0.2730504 -0.02117,0.061383 -0.03175,0.1397002 -0.03175,0.256117 0,0.1164169 0.0127,0.1905003 0.03387,0.2561171 0.05503,0.1756836 0.201084,0.2751671 0.406401,0.2751671 z M 16.097675,3.6401904 c -0.0085,0 -0.0127,-0.00423 -0.0127,-0.0127 0,-0.046567 0.0042,-0.08255 0.01482,-0.1143002 0.03387,-0.1016002 0.118533,-0.1587503 0.232833,-0.1587503 0.1143,0 0.198967,0.05715 0.232834,0.1587503 0.01058,0.03175 0.01482,0.067733 0.01482,0.1143002 0,0.00847 -0.0042,0.0127 -0.0127,0.0127 z m 1.67058,0.5947842 c 0.0127,0 0.02117,-0.00847 0.02117,-0.021167 v -0.670984 c 0,-0.2497671 -0.110067,-0.3450172 -0.397934,-0.3450172 -0.150284,0 -0.268817,0.040217 -0.345018,0.099483 -0.0085,0.00847 -0.01058,0.016933 -0.0042,0.029633 l 0.05715,0.097367 c 0.0064,0.010583 0.01905,0.010583 0.02963,0.00212 0.05927,-0.042333 0.131233,-0.071967 0.245533,-0.071967 0.188384,0 0.243417,0.059267 0.243417,0.198967 v 0.074083 c 0,0.00847 -0.0042,0.0127 -0.0127,0.0127 h -0.230717 c -0.24765,0 -0.395817,0.099484 -0.395817,0.3132671 0,0.205317 0.148167,0.3048005 0.340784,0.3048005 0.154517,0 0.254,-0.05715 0.300567,-0.1333502 h 0.0021 v 0.0889 c 0,0.0127 0.0085,0.021167 0.02117,0.021167 z M 17.361854,4.1058578 c -0.135467,0 -0.211667,-0.055033 -0.211667,-0.1587503 0,-0.1143002 0.0762,-0.1651002 0.251884,-0.1651002 h 0.2032 c 0.0085,0 0.0127,0.00423 0.0127,0.0127 v 0.1121835 c 0,0.1248835 -0.09737,0.198967 -0.256117,0.198967 z m 1.096963,0.1524002 c 0.264583,0 0.408517,-0.1333502 0.408517,-0.3323172 0,-0.1629836 -0.09948,-0.2667004 -0.304801,-0.2857504 L 18.4567,3.629607 C 18.306416,3.61479 18.257733,3.572457 18.257733,3.4920235 c 0,-0.08255 0.06562,-0.1397002 0.192617,-0.1397002 0.103717,0 0.207434,0.040217 0.27305,0.08255 0.01058,0.00635 0.02117,0.00635 0.02963,-0.00423 L 18.825,3.3396263 c 0.0064,-0.010583 0.0064,-0.023283 -0.0042,-0.029633 -0.08467,-0.0635 -0.211667,-0.1121835 -0.359834,-0.1121835 -0.239183,0 -0.376767,0.1164168 -0.376767,0.3090338 0,0.1651002 0.103717,0.2645837 0.302684,0.2857504 l 0.10795,0.010583 c 0.15875,0.016933 0.19685,0.061383 0.19685,0.1418168 0,0.091017 -0.07408,0.1545169 -0.22225,0.1545169 -0.122767,0 -0.237067,-0.0508 -0.313267,-0.1164168 -0.0085,-0.00847 -0.02117,-0.00847 -0.02963,0 l -0.08678,0.093133 c -0.0085,0.00847 -0.0085,0.021167 0,0.029633 0.08255,0.071967 0.22225,0.1524002 0.419101,0.1524002 z m 1.04193,0 c 0.19685,0 0.345017,-0.1016002 0.400051,-0.2730504 0.02328,-0.06985 0.03387,-0.1397002 0.03387,-0.2582338 0,-0.1164168 -0.01058,-0.1862669 -0.03387,-0.256117 -0.05503,-0.1735669 -0.203201,-0.2730504 -0.400051,-0.2730504 -0.19685,0 -0.345017,0.099483 -0.400051,0.2730504 -0.02328,0.06985 -0.03387,0.1397002 -0.03387,0.256117 0,0.1185336 0.01058,0.1883837 0.03387,0.2582338 0.05503,0.1714502 0.203201,0.2730504 0.400051,0.2730504 z m 0,-0.1651003 c -0.112184,0 -0.194734,-0.05715 -0.2286,-0.1587502 -0.01693,-0.055033 -0.02328,-0.1100668 -0.02328,-0.2074337 0,-0.097367 0.0064,-0.1502835 0.02328,-0.2053169 0.03387,-0.1016002 0.116416,-0.1587503 0.2286,-0.1587503 0.112183,0 0.194734,0.05715 0.2286,0.1587503 0.01693,0.055033 0.02328,0.1079501 0.02328,0.2053169 0,0.097367 -0.0064,0.1524003 -0.02328,0.2074337 -0.03387,0.1016001 -0.116417,0.1587502 -0.2286,0.1587502 z m 1.4949,0.1418169 c 0.0127,0 0.02117,-0.00847 0.02117,-0.021167 v -0.635001 c 0,-0.230717 -0.131233,-0.3810005 -0.351367,-0.3810005 -0.137583,0 -0.23495,0.059267 -0.283634,0.1375835 h -0.0021 v -0.093133 c 0,-0.0127 -0.0085,-0.021167 -0.02117,-0.021167 h -0.135467 c -0.0127,0 -0.02117,0.00847 -0.02117,0.021167 v 0.9715515 c 0,0.0127 0.0085,0.021167 0.02117,0.021167 h 0.135467 c 0.0127,0 0.02117,-0.00847 0.02117,-0.021167 V 3.610557 c 0,-0.1502836 0.09525,-0.2476504 0.232833,-0.2476504 0.152401,0 0.226484,0.09525 0.226484,0.2582337 v 0.5926676 c 0,0.0127 0.0085,0.021167 0.02117,0.021167 z m 0.500064,-1.2424852 c 0.0127,0 0.02117,-0.00847 0.02117,-0.021167 V 2.8168058 c 0,-0.0127 -0.0085,-0.021167 -0.02117,-0.021167 h -0.143933 c -0.0127,0 -0.02117,0.00847 -0.02117,0.021167 v 0.1545169 c 0,0.0127 0.0085,0.021167 0.02117,0.021167 z m -0.0042,1.2424852 c 0.0127,0 0.02117,-0.00847 0.02117,-0.021167 V 3.2422564 c 0,-0.0127 -0.0085,-0.021167 -0.02117,-0.021167 h -0.135467 c -0.0127,0 -0.02117,0.00847 -0.02117,0.021167 v 0.9715515 c 0,0.0127 0.0085,0.021167 0.02117,0.021167 z m 1.143529,0 c 0.0127,0 0.02117,-0.00847 0.02117,-0.021167 v -0.635001 c 0,-0.230717 -0.131233,-0.3810005 -0.351367,-0.3810005 -0.137584,0 -0.23495,0.059267 -0.283634,0.1375835 h -0.0021 v -0.093133 c 0,-0.0127 -0.0085,-0.021167 -0.02117,-0.021167 h -0.135467 c -0.0127,0 -0.02117,0.00847 -0.02117,0.021167 v 0.9715515 c 0,0.0127 0.0085,0.021167 0.02117,0.021167 h 0.135467 c 0.0127,0 0.02117,-0.00847 0.02117,-0.021167 V 3.610557 c 0,-0.1502836 0.09525,-0.2476504 0.232833,-0.2476504 0.1524,0 0.226484,0.09525 0.226484,0.2582337 v 0.5926676 c 0,0.0127 0.0085,0.021167 0.02117,0.021167 z m 0.669399,0.404284 c 0.28575,0 0.442384,-0.1608669 0.442384,-0.4487341 V 3.2422564 c 0,-0.0127 -0.0085,-0.021167 -0.02117,-0.021167 h -0.135467 c -0.0127,0 -0.02117,0.00847 -0.02117,0.021167 v 0.09525 h -0.0021 c -0.04657,-0.084667 -0.133351,-0.1397002 -0.281517,-0.1397002 -0.171451,0 -0.289984,0.086783 -0.340784,0.2455337 -0.0254,0.0762 -0.03387,0.1502835 -0.03387,0.2667004 0,0.1164168 0.0085,0.1905003 0.03387,0.2667004 0.0508,0.1587502 0.169333,0.2455337 0.340784,0.2455337 0.148166,0 0.23495,-0.055033 0.281517,-0.1397002 h 0.0021 v 0.1185335 c 0,0.1862669 -0.0889,0.2730504 -0.256117,0.2730504 -0.09737,0 -0.169333,-0.0381 -0.239183,-0.1016001 -0.01058,-0.010583 -0.02117,-0.010583 -0.03175,0 l -0.08678,0.086783 c -0.01058,0.010583 -0.01058,0.01905 -0.0021,0.029633 0.06773,0.0889 0.209551,0.1502836 0.351368,0.1502836 z m 0.0254,-0.5799676 c -0.110067,0 -0.179917,-0.052917 -0.213784,-0.1524002 -0.01693,-0.0508 -0.0254,-0.1143002 -0.0254,-0.1968503 0,-0.08255 0.0085,-0.1439336 0.0254,-0.1968503 0.03387,-0.097367 0.103717,-0.1502836 0.213784,-0.1502836 0.105833,0 0.179917,0.046567 0.2159,0.1502836 0.01693,0.052917 0.02328,0.1100668 0.02328,0.1968503 0,0.086783 -0.0063,0.1460502 -0.02328,0.1968503 -0.03598,0.1037168 -0.110067,0.1524002 -0.2159,0.1524002 z"
         id="path172" /><path
         style="font-family:'DIN Next W1G';-inkscape-font-specification:'DIN Next W1G';letter-spacing:0.0714375px;fill:#ffffff;fill-opacity:1;stroke:none"
         d="m 14.681092,5.7440527 c 0,0.0127 0.0085,0.021167 0.02117,0.021167 h 0.865718 c 0.0127,0 0.02117,-0.00847 0.02117,-0.021167 V 5.6107025 c 0,-0.0127 -0.0085,-0.021167 -0.02117,-0.021167 h -0.685801 c -0.0085,0 -0.0127,-0.00423 -0.0127,-0.0127 V 5.1386851 c 0,-0.00847 0.0042,-0.0127 0.0127,-0.0127 h 0.582084 c 0.0127,0 0.02117,-0.00847 0.02117,-0.021167 V 4.9714682 c 0,-0.0127 -0.0085,-0.021167 -0.02117,-0.021167 h -0.582084 c -0.0085,0 -0.0127,-0.00423 -0.0127,-0.0127 v -0.423334 c 0,-0.00847 0.0042,-0.0127 0.0127,-0.0127 h 0.685801 c 0.0127,0 0.02117,-0.00847 0.02117,-0.021167 V 4.3470506 c 0,-0.0127 -0.0085,-0.021167 -0.02117,-0.021167 h -0.865718 c -0.0127,0 -0.02117,0.00847 -0.02117,0.021167 z m 2.029357,0.021167 c 0.0127,0 0.02117,-0.00847 0.02117,-0.021167 V 4.3470506 c 0,-0.0127 -0.0085,-0.021167 -0.02117,-0.021167 h -0.135467 c -0.0127,0 -0.02117,0.00847 -0.02117,0.021167 v 0.5207008 h -0.0021 c -0.04868,-0.080434 -0.135467,-0.1397002 -0.287867,-0.1397002 -0.175684,0 -0.298451,0.08255 -0.349251,0.243417 -0.02752,0.080433 -0.03598,0.1608669 -0.03598,0.2857505 0,0.1270002 0.0085,0.2074336 0.03598,0.2878671 0.0508,0.1608669 0.173567,0.243417 0.349251,0.243417 0.1524,0 0.239183,-0.061383 0.287867,-0.1418169 h 0.0021 v 0.097367 c 0,0.0127 0.0085,0.021167 0.02117,0.021167 z M 16.306165,5.6234026 c -0.112184,0 -0.188384,-0.055034 -0.22225,-0.1545169 -0.01693,-0.052917 -0.02328,-0.1185336 -0.02328,-0.211667 0,-0.091017 0.0063,-0.1566336 0.02328,-0.211667 0.03387,-0.099483 0.110066,-0.1524003 0.22225,-0.1524003 0.112183,0 0.1905,0.0508 0.224367,0.1524003 0.01693,0.0508 0.02328,0.1100668 0.02328,0.211667 0,0.1016001 -0.0064,0.1629835 -0.02328,0.211667 -0.03387,0.1016001 -0.112184,0.1545169 -0.224367,0.1545169 z m 1.616607,0.1418168 c 0.0127,0 0.02117,-0.00847 0.02117,-0.021167 V 4.7725013 c 0,-0.0127 -0.0085,-0.021167 -0.02117,-0.021167 h -0.135467 c -0.0127,0 -0.02117,0.00847 -0.02117,0.021167 v 0.6011342 c 0,0.1524002 -0.09102,0.2497671 -0.2286,0.2497671 -0.150284,0 -0.224367,-0.09525 -0.224367,-0.2603504 V 4.7725013 c 0,-0.0127 -0.0085,-0.021167 -0.02117,-0.021167 h -0.135467 c -0.0127,0 -0.02117,0.00847 -0.02117,0.021167 v 0.6328843 c 0,0.230717 0.129117,0.3831172 0.351367,0.3831172 0.131233,0 0.224367,-0.055033 0.277284,-0.1397002 h 0.0021 v 0.09525 c 0,0.0127 0.0085,0.021167 0.02117,0.021167 z m 0.378353,-0.5080007 c 0,0.1143001 0.0127,0.1968503 0.03175,0.2582337 0.05715,0.1756836 0.205316,0.2730504 0.40005,0.2730504 0.154517,0 0.273051,-0.065617 0.347134,-0.1714503 0.0064,-0.010583 0.0064,-0.01905 -0.0064,-0.029633 l -0.09313,-0.0762 c -0.01058,-0.00847 -0.02117,-0.00847 -0.02963,0.00212 -0.05927,0.074084 -0.116417,0.1100669 -0.218017,0.1100669 -0.110067,0 -0.192617,-0.052917 -0.226484,-0.1587503 -0.01693,-0.052917 -0.02328,-0.1164168 -0.02328,-0.2074336 0,-0.0889 0.0064,-0.1524003 0.02328,-0.205317 0.03387,-0.1058335 0.116417,-0.1587503 0.226484,-0.1587503 0.1016,0 0.15875,0.035983 0.218017,0.1100669 0.0085,0.010583 0.01905,0.010583 0.02963,0.00212 l 0.09313,-0.0762 c 0.0127,-0.010583 0.0127,-0.01905 0.0064,-0.029633 -0.07408,-0.1058335 -0.192617,-0.1714503 -0.347134,-0.1714503 -0.194734,0 -0.3429,0.097367 -0.40005,0.2730504 -0.01905,0.061383 -0.03175,0.1439336 -0.03175,0.2561171 z m 1.84521,0.5080007 c 0.0127,0 0.02117,-0.00847 0.02117,-0.021167 v -0.670984 c 0,-0.2497671 -0.110067,-0.3450172 -0.397934,-0.3450172 -0.150283,0 -0.268817,0.040217 -0.345017,0.099483 -0.0085,0.00847 -0.01058,0.016933 -0.0042,0.029633 l 0.05715,0.097367 c 0.0063,0.010583 0.01905,0.010583 0.02963,0.00212 0.05927,-0.042333 0.131234,-0.071967 0.245534,-0.071967 0.188384,0 0.243417,0.059267 0.243417,0.1989669 v 0.074084 c 0,0.00847 -0.0042,0.0127 -0.0127,0.0127 h -0.230717 c -0.24765,0 -0.395817,0.099483 -0.395817,0.3132671 0,0.205317 0.148167,0.3048005 0.340784,0.3048005 0.154516,0 0.254,-0.05715 0.300567,-0.1333502 h 0.0021 v 0.0889 c 0,0.0127 0.0085,0.021167 0.02117,0.021167 z M 19.739934,5.6361026 c -0.135467,0 -0.211667,-0.055033 -0.211667,-0.1587503 0,-0.1143001 0.0762,-0.1651002 0.251884,-0.1651002 h 0.2032 c 0.0085,0 0.0127,0.00423 0.0127,0.0127 v 0.1121835 c 0,0.1248835 -0.09737,0.198967 -0.256117,0.198967 z m 1.210204,0.1397002 c 0.0127,0 0.02117,-0.00847 0.02117,-0.021167 V 5.6318692 c 0,-0.0127 -0.0085,-0.021167 -0.02117,-0.021167 h -0.04445 c -0.09102,0 -0.129117,-0.027517 -0.129117,-0.1291168 V 4.9079681 c 0,-0.00847 0.0042,-0.0127 0.0127,-0.0127 h 0.160867 c 0.0127,0 0.02117,-0.00847 0.02117,-0.021167 V 4.7725013 c 0,-0.0127 -0.0085,-0.021167 -0.02117,-0.021167 h -0.160867 c -0.0085,0 -0.0127,-0.00423 -0.0127,-0.0127 V 4.4528841 c 0,-0.0127 -0.0085,-0.021167 -0.02117,-0.021167 h -0.135467 c -0.0127,0 -0.02117,0.00847 -0.02117,0.021167 v 0.2857504 c 0,0.00847 -0.0042,0.0127 -0.0127,0.0127 h -0.08467 c -0.0127,0 -0.02117,0.00847 -0.02117,0.021167 v 0.1016001 c 0,0.0127 0.0085,0.021167 0.02117,0.021167 h 0.08467 c 0.0085,0 0.0127,0.00423 0.0127,0.0127 v 0.5799676 c 0,0.198967 0.0762,0.2878671 0.27305,0.2878671 z m 0.528638,-1.2530686 c 0.0127,0 0.02117,-0.00847 0.02117,-0.021167 V 4.3470506 c 0,-0.0127 -0.0085,-0.021167 -0.02117,-0.021167 h -0.143934 c -0.0127,0 -0.02117,0.00847 -0.02117,0.021167 v 0.1545169 c 0,0.0127 0.0085,0.021167 0.02117,0.021167 z m -0.0042,1.2424852 c 0.0127,0 0.02117,-0.00847 0.02117,-0.021167 V 4.7725013 c 0,-0.0127 -0.0085,-0.021167 -0.02117,-0.021167 H 21.33911 c -0.0127,0 -0.02117,0.00847 -0.02117,0.021167 v 0.9715514 c 0,0.0127 0.0085,0.021167 0.02117,0.021167 z m 0.812271,0.023283 c 0.19685,0 0.345017,-0.1016001 0.400051,-0.2730504 0.02328,-0.06985 0.03387,-0.1397002 0.03387,-0.2582337 0,-0.1164169 -0.01058,-0.186267 -0.03387,-0.2561171 -0.05503,-0.1735669 -0.203201,-0.2730504 -0.400051,-0.2730504 -0.19685,0 -0.345017,0.099483 -0.400051,0.2730504 -0.02328,0.06985 -0.03387,0.1397002 -0.03387,0.2561171 0,0.1185335 0.01058,0.1883836 0.03387,0.2582337 0.05503,0.1714503 0.203201,0.2730504 0.400051,0.2730504 z m 0,-0.1651002 c -0.112184,0 -0.194734,-0.05715 -0.2286,-0.1587503 -0.01693,-0.055033 -0.02328,-0.1100668 -0.02328,-0.2074336 0,-0.097367 0.0063,-0.1502836 0.02328,-0.205317 0.03387,-0.1016002 0.116416,-0.1587503 0.2286,-0.1587503 0.112184,0 0.194734,0.05715 0.2286,0.1587503 0.01693,0.055033 0.02328,0.1079501 0.02328,0.205317 0,0.097367 -0.0063,0.1524002 -0.02328,0.2074336 -0.03387,0.1016002 -0.116416,0.1587503 -0.2286,0.1587503 z m 1.584858,0.1418168 c 0.0127,0 0.02117,-0.00847 0.02117,-0.021167 V 5.1090518 c 0,-0.230717 -0.131234,-0.3810006 -0.351367,-0.3810006 -0.137584,0 -0.234951,0.059267 -0.283634,0.1375835 h -0.0021 v -0.093133 c 0,-0.0127 -0.0085,-0.021167 -0.02117,-0.021167 h -0.135467 c -0.0127,0 -0.02117,0.00847 -0.02117,0.021167 v 0.9715514 c 0,0.0127 0.0085,0.021167 0.02117,0.021167 h 0.135467 c 0.0127,0 0.02117,-0.00847 0.02117,-0.021167 V 5.1408018 c 0,-0.1502835 0.09525,-0.2476504 0.232834,-0.2476504 0.1524,0 0.226484,0.09525 0.226484,0.2582338 v 0.5926675 c 0,0.0127 0.0085,0.021167 0.02117,0.021167 z"
         id="path173" /></g></g></svg>
