<?xml version="1.0" encoding="UTF-8" standalone="no"?>
<!-- Created with Inkscape (http://www.inkscape.org/) -->

<svg
   width="14.681092mm"
   height="7.197639mm"
   viewBox="0 0 14.681092 7.197639"
   version="1.1"
   id="svg1"
   xml:space="preserve"
   inkscape:version="1.3.2 (091e20ef0f, 2023-11-25)"
   sodipodi:docname="all.svg"
   xmlns:inkscape="http://www.inkscape.org/namespaces/inkscape"
   xmlns:sodipodi="http://sodipodi.sourceforge.net/DTD/sodipodi-0.dtd"
   xmlns="http://www.w3.org/2000/svg"
   xmlns:svg="http://www.w3.org/2000/svg"><sodipodi:namedview
     id="namedview1"
     pagecolor="#f1d0f2"
     bordercolor="#000000"
     borderopacity="0.25"
     inkscape:showpageshadow="2"
     inkscape:pageopacity="0.0"
     inkscape:pagecheckerboard="0"
     inkscape:deskcolor="#d1d1d1"
     inkscape:document-units="mm"
     inkscape:zoom="4"
     inkscape:cx="113.375"
     inkscape:cy="64.500001"
     inkscape:window-width="2560"
     inkscape:window-height="1011"
     inkscape:window-x="0"
     inkscape:window-y="32"
     inkscape:window-maximized="1"
     inkscape:current-layer="layer1" /><defs
     id="defs1"><inkscape:path-effect
       effect="simplify"
       id="path-effect272"
       is_visible="true"
       lpeversion="1.3"
       threshold="363.636"
       steps="1"
       smooth_angles="360"
       helper_size="0"
       simplify_individual_paths="false"
       simplify_just_coalesce="false" /><inkscape:path-effect
       effect="simplify"
       id="path-effect270"
       is_visible="true"
       lpeversion="1.3"
       threshold="363.636"
       steps="1"
       smooth_angles="360"
       helper_size="0"
       simplify_individual_paths="false"
       simplify_just_coalesce="false" /><inkscape:path-effect
       effect="simplify"
       id="path-effect268"
       is_visible="true"
       lpeversion="1.3"
       threshold="363.636"
       steps="1"
       smooth_angles="360"
       helper_size="0"
       simplify_individual_paths="false"
       simplify_just_coalesce="false" /><inkscape:path-effect
       effect="simplify"
       id="path-effect266"
       is_visible="true"
       lpeversion="1.3"
       threshold="363.636"
       steps="1"
       smooth_angles="360"
       helper_size="0"
       simplify_individual_paths="false"
       simplify_just_coalesce="false" /><inkscape:path-effect
       effect="simplify"
       id="path-effect264"
       is_visible="true"
       lpeversion="1.3"
       threshold="363.636"
       steps="1"
       smooth_angles="360"
       helper_size="0"
       simplify_individual_paths="false"
       simplify_just_coalesce="false" /><inkscape:path-effect
       effect="simplify"
       id="path-effect262"
       is_visible="true"
       lpeversion="1.3"
       threshold="363.636"
       steps="1"
       smooth_angles="360"
       helper_size="0"
       simplify_individual_paths="false"
       simplify_just_coalesce="false" /><inkscape:path-effect
       effect="simplify"
       id="path-effect260"
       is_visible="true"
       lpeversion="1.3"
       threshold="363.636"
       steps="1"
       smooth_angles="360"
       helper_size="0"
       simplify_individual_paths="false"
       simplify_just_coalesce="false" /><inkscape:path-effect
       effect="simplify"
       id="path-effect258"
       is_visible="true"
       lpeversion="1.3"
       threshold="363.636"
       steps="1"
       smooth_angles="360"
       helper_size="0"
       simplify_individual_paths="false"
       simplify_just_coalesce="false" /><inkscape:path-effect
       effect="simplify"
       id="path-effect256"
       is_visible="true"
       lpeversion="1.3"
       threshold="363.636"
       steps="1"
       smooth_angles="360"
       helper_size="0"
       simplify_individual_paths="false"
       simplify_just_coalesce="false" /></defs><g
     inkscape:label="Layer 1"
     inkscape:groupmode="layer"
     id="layer1"
     transform="translate(-39.606435,-26.658136)"><rect
       style="fill:#808080;fill-opacity:0.00648098;stroke-width:0.3;stroke-linecap:square;stroke-linejoin:round;stroke-miterlimit:0"
       id="rect148"
       width="14.681092"
       height="7.1976376"
       x="39.606434"
       y="26.658136" /><g
       id="g215"
       style="fill:#000000;fill-opacity:1;stroke:#6f6f6f;stroke-width:0.307056;stroke-opacity:1"
       transform="matrix(-0.97701946,0,0,0.97701946,58.054868,-23.788268)"><path
         style="fill:#000000;fill-opacity:1;stroke:#6f6f6f;stroke-width:0.307056;stroke-linecap:round;stroke-linejoin:round;stroke-miterlimit:0;stroke-opacity:1"
         d="m 13.984753,54.912635 c 0.423,0 0.846001,0 1.269001,0"
         id="path214"
         inkscape:path-effect="#path-effect264"
         inkscape:original-d="m 13.984753,54.912635 h 1.269001" /><path
         style="fill:#000000;fill-opacity:1;stroke:#6f6f6f;stroke-width:0.307056;stroke-linecap:round;stroke-linejoin:round;stroke-miterlimit:0;stroke-opacity:1"
         d="m 15.253754,54.912635 c 0.08561,-0.165713 0.171231,-0.331427 0.256846,-0.49714"
         id="path215"
         inkscape:path-effect="#path-effect266"
         inkscape:original-d="M 15.253754,54.912635 15.5106,54.415495"
         sodipodi:nodetypes="cc" /></g><g
       id="g217"
       style="fill:#000000;fill-opacity:1;stroke:#6f6f6f;stroke-width:0.307056;stroke-opacity:1"
       transform="matrix(0.97701946,0,0,0.97701946,28.505043,-24.305274)"><path
         style="fill:#000000;fill-opacity:1;stroke:#6f6f6f;stroke-width:0.307056;stroke-linecap:round;stroke-linejoin:round;stroke-miterlimit:0;stroke-opacity:1"
         d="m 13.984753,54.912635 c 0.423,0 0.846001,0 1.269001,0"
         id="path216"
         inkscape:path-effect="#path-effect268"
         inkscape:original-d="m 13.984753,54.912635 h 1.269001" /><path
         style="fill:#000000;fill-opacity:1;stroke:#6f6f6f;stroke-width:0.307056;stroke-linecap:round;stroke-linejoin:round;stroke-miterlimit:0;stroke-opacity:1"
         d="m 15.253754,54.912635 c 0.110401,-0.312474 0.220801,-0.62495 0.331202,-0.937424"
         id="path217"
         inkscape:path-effect="#path-effect270"
         inkscape:original-d="m 15.253754,54.912635 0.331202,-0.937424" /></g><ellipse
       style="fill:#000000;fill-opacity:1;stroke:#6f6f6f;stroke-width:0.200001;stroke-linecap:round;stroke-linejoin:round;stroke-miterlimit:0;stroke-opacity:1"
       id="ellipse217"
       cx="43.672577"
       cy="28.492302"
       rx="0.38806033"
       ry="0.38724822" /><g
       id="g218"
       style="fill:#000000;fill-opacity:1;stroke:#6f6f6f;stroke-width:0.307056;stroke-opacity:1"
       transform="matrix(0.97701946,0,0,0.97701946,28.331474,-22.922127)"><path
         style="fill:#000000;fill-opacity:1;stroke:#6f6f6f;stroke-width:0.307056;stroke-linecap:round;stroke-linejoin:round;stroke-miterlimit:0;stroke-opacity:1"
         d="m 13.984753,54.912635 c 0.423,0 0.846001,0 1.269001,0"
         id="path218"
         inkscape:path-effect="#path-effect272"
         inkscape:original-d="m 13.984753,54.912635 h 1.269001" /></g><ellipse
       style="fill:#000000;fill-opacity:1;stroke:#6f6f6f;stroke-width:0.2;stroke-linecap:round;stroke-linejoin:round;stroke-miterlimit:0;stroke-opacity:1"
       id="ellipse218"
       cx="43.585064"
       cy="30.693966"
       rx="0.3893621"
       ry="0.38854787" /><ellipse
       style="fill:#000000;fill-opacity:1;stroke:#6f6f6f;stroke-width:0.2;stroke-linecap:round;stroke-linejoin:round;stroke-miterlimit:0;stroke-opacity:1"
       id="ellipse219"
       cx="44.523422"
       cy="29.862982"
       rx="0.3893621"
       ry="0.38854787" /><path
       style="font-style:italic;font-weight:900;font-size:25.3333px;line-height:0.8;font-family:'DIN Next W1G';-inkscape-font-specification:'DIN Next W1G Heavy Italic';letter-spacing:2.31px;white-space:pre;fill:#ffffff;fill-opacity:1;stroke-width:0.300001;stroke-linecap:square;stroke-linejoin:round;stroke-miterlimit:0"
       d="m 40.771927,32.377052 c -0.0065,0.03929 0.01965,0.06549 0.05894,0.06549 h 2.829053 c 0.03929,0 0.06549,-0.02619 0.07204,-0.06549 l 0.189914,-1.04125 c 0.0065,-0.03929 -0.01965,-0.06549 -0.05894,-0.06549 h -1.538953 c -0.01965,0 -0.03274,-0.01311 -0.0262,-0.03929 l 0.563192,-3.176137 c 0.0065,-0.03929 -0.01965,-0.06549 -0.05894,-0.06549 h -1.19187 c -0.03929,0 -0.06549,0.02619 -0.07204,0.06549 z m 7.558444,0.06549 c 0.04584,0 0.05894,-0.03929 0.05239,-0.07204 l -0.432216,-1.643731 c 0.543545,-0.281597 0.897177,-0.812043 0.897177,-1.538954 0,-0.694166 -0.458412,-1.198417 -1.427625,-1.198417 h -1.800902 c -0.03274,0 -0.05894,0.02619 -0.06549,0.06549 l -0.766202,4.322166 c -0.0065,0.03929 0.01965,0.06549 0.05239,0.06549 h 1.19187 c 0.03929,0 0.06549,-0.02619 0.07204,-0.06549 l 0.248851,-1.375236 c 0.0065,-0.02619 0.01965,-0.03929 0.03929,-0.03929 h 0.353632 l 0.314339,1.414526 c 0.0131,0.04584 0.03274,0.06549 0.09168,0.06549 z m -1.34904,-2.547457 H 46.57531 c -0.01965,0 -0.03274,-0.01311 -0.0262,-0.03929 l 0.130975,-0.72691 c 0,-0.02619 0.01965,-0.03929 0.03929,-0.03929 h 0.41257 c 0.242303,0 0.373278,0.11133 0.373278,0.294694 0,0.333986 -0.229206,0.510802 -0.523899,0.510802 z m 2.398048,2.48197 c -0.0065,0.03929 0.01965,0.06549 0.05239,0.06549 h 2.887993 c 0.03929,0 0.06549,-0.02619 0.07204,-0.06549 l 0.170266,-0.969213 c 0.0065,-0.03929 -0.01311,-0.06549 -0.05239,-0.06549 h -1.59789 c -0.02619,0 -0.03274,-0.01311 -0.03274,-0.03929 l 0.09823,-0.530448 c 0.0065,-0.02619 0.01965,-0.03929 0.03929,-0.03929 h 1.283553 c 0.03929,0 0.07204,-0.02619 0.07858,-0.06549 l 0.163717,-0.943019 c 0.0065,-0.03929 -0.01311,-0.06549 -0.05239,-0.06549 h -1.283551 c -0.01965,0 -0.03274,-0.01311 -0.0262,-0.03929 l 0.08514,-0.491156 c 0,-0.02619 0.01965,-0.03929 0.03929,-0.03929 h 1.610989 c 0.03274,0 0.05894,-0.02619 0.06549,-0.06549 L 53.158,28.054886 c 0.0065,-0.03929 -0.01311,-0.06549 -0.05239,-0.06549 h -2.89454 c -0.03274,0 -0.05894,0.02619 -0.06549,0.06549 z"
       id="path198"
       aria-label="LRE" /><g
       id="g202"
       style="fill:#6f6f6f;fill-opacity:1;stroke-width:2.7696"
       transform="matrix(0.05429708,0,0,0.05402213,45.053705,27.326912)"><line
         x1="16"
         x2="25.875"
         y1="35"
         y2="35"
         fill="#ea5a47"
         stroke="none"
         id="line198"
         style="fill:#6f6f6f;fill-opacity:1;stroke-width:2.7696" /><path
         fill="#ea5a47"
         stroke="none"
         d="m 25.875,35 c 3.4167,0 4.75,-2.9167 4.75,-6.1667"
         id="path199"
         style="fill:#6f6f6f;fill-opacity:1;stroke-width:2.7696" /><line
         x1="16"
         x2="19.75"
         y1="45.5"
         y2="45.5"
         fill="#ea5a47"
         stroke="none"
         id="line199"
         style="fill:#6f6f6f;fill-opacity:1;stroke-width:2.7696" /><line
         x1="35.299702"
         x2="35.299702"
         y1="45.5"
         y2="39.4375"
         fill="#ea5a47"
         stroke="none"
         id="line200"
         style="fill:#6f6f6f;fill-opacity:1;stroke-width:2.7696" /><path
         fill="#ea5a47"
         stroke="none"
         d="m 35.2997,39.4375 c 0,-2.2455 1.2003,-5.25 5.0756,-5.25"
         id="path200"
         style="fill:#6f6f6f;fill-opacity:1;stroke-width:2.7696" /><line
         x1="58.458302"
         x2="49.875"
         y1="34.541698"
         y2="34.541698"
         fill="#ea5a47"
         stroke="none"
         id="line201"
         style="fill:#6f6f6f;fill-opacity:1;stroke-width:2.7696" /><path
         fill="#ffa7c0"
         stroke="none"
         d="m 44.470096,45.5 c 0,0 -3.930896,10.5 -12.053396,10.5 H 16 C 8.7917,56 8.3333,45.5 16,45.5 8.7917,45.5 8.3333,35 16,35 7.8333,27.75 17.875,21.4375 22.5,26.3125 17.701,19.6875 27.875,16 31.375,21.3125 30.9627,16 36.2222,15.0417 41.1003,19.024 l -0.4336,0.351 C 43.0417,17 50.8443,18.2917 50.8443,24.6891 l -2.2192,1.6234 c 6.8646,-6.8646 14.2083,4.1875 8.5,8.2292 h 1.3333 c 4.75,0 5.2917,10.9583 -1.3333,10.9583 H 29.2917"
         id="path201"
         style="fill:#6f6f6f;fill-opacity:1;stroke-width:2.7696"
         sodipodi:nodetypes="csscccccccccssc" /><path
         fill="#ea5a47"
         stroke="none"
         d="M 40.6667,19.375 C 38.25,21.7917 40.3845,22.5532 36.396,26.5417"
         id="path202"
         style="fill:#6f6f6f;fill-opacity:1;stroke-width:2.7696" /></g><g
       id="g209"
       style="stroke-width:2.7696"
       transform="matrix(0.05429708,0,0,0.05402213,45.053705,27.326912)"><line
         x1="16"
         x2="25.875"
         y1="35"
         y2="35"
         fill="none"
         stroke="#000000"
         stroke-linecap="round"
         stroke-linejoin="round"
         stroke-miterlimit="10"
         stroke-width="8.74652"
         id="line205"
         style="stroke-width:2.7696" /><path
         fill="none"
         stroke="#000000"
         stroke-linecap="round"
         stroke-linejoin="round"
         stroke-miterlimit="10"
         stroke-width="8.74652"
         d="m 25.875,35 c 3.4167,0 4.75,-2.9167 4.75,-6.1667"
         id="path205"
         style="stroke-width:2.7696" /><line
         x1="16"
         x2="19.75"
         y1="45.5"
         y2="45.5"
         fill="none"
         stroke="#000000"
         stroke-linecap="round"
         stroke-linejoin="round"
         stroke-miterlimit="10"
         stroke-width="8.74652"
         id="line206"
         style="stroke-width:2.7696" /><line
         x1="35.299702"
         x2="35.299702"
         y1="45.5"
         y2="39.4375"
         fill="none"
         stroke="#000000"
         stroke-linecap="round"
         stroke-linejoin="round"
         stroke-miterlimit="10"
         stroke-width="8.74652"
         id="line207"
         style="stroke-width:2.7696" /><path
         fill="none"
         stroke="#000000"
         stroke-linecap="round"
         stroke-linejoin="round"
         stroke-miterlimit="10"
         stroke-width="8.74652"
         d="m 35.2997,39.4375 c 0,-2.2455 1.2003,-5.25 5.0756,-5.25"
         id="path207"
         style="stroke-width:2.7696" /><line
         x1="58.458302"
         x2="49.875"
         y1="34.541698"
         y2="34.541698"
         fill="none"
         stroke="#000000"
         stroke-linecap="round"
         stroke-linejoin="round"
         stroke-miterlimit="10"
         stroke-width="8.74652"
         id="line208"
         style="stroke-width:2.7696" /><path
         fill="none"
         stroke="#000000"
         stroke-linecap="round"
         stroke-linejoin="round"
         stroke-miterlimit="10"
         stroke-width="8.74652"
         d="m 44.182721,45.5 c 0,0 -3.643521,10.5 -11.766021,10.5 H 16 C 8.7917,56 8.3333,45.5 16,45.5 8.7917,45.5 8.3333,35 16,35 7.8333,27.75 17.875,21.4375 22.5,26.3125 17.701,19.6875 27.875,16 31.375,21.3125 30.9627,16 36.2222,15.0417 41.1003,19.024 l -0.4336,0.351 C 43.0417,17 50.8443,18.2917 50.8443,24.6891 l -2.2192,1.6234 c 6.8646,-6.8646 14.2083,4.1875 8.5,8.2292 h 1.3333 c 4.75,0 5.2917,10.9583 -1.3333,10.9583 H 29.2917"
         id="path208"
         style="stroke-width:2.7696"
         sodipodi:nodetypes="csscccccccccssc" /><path
         fill="none"
         stroke="#000000"
         stroke-linecap="round"
         stroke-linejoin="round"
         stroke-miterlimit="10"
         stroke-width="8.74652"
         d="M 40.6667,19.375 C 38.25,21.7917 40.3845,22.5532 36.396,26.5417"
         id="path209"
         style="stroke-width:2.7696" /></g><rect
       style="fill:#6f6f6f;fill-opacity:1;stroke:#000000;stroke-width:0.165014;stroke-linecap:round;stroke-linejoin:round;stroke-miterlimit:0;stroke-opacity:1"
       id="rect210"
       width="0.97794306"
       height="4.7107925"
       x="-55.220402"
       y="19.554375"
       rx="0.38002101"
       ry="0.18668161"
       transform="matrix(-0.98737184,-0.15841987,-0.17678627,0.98424926,0,0)" /><path
       style="fill:none;fill-opacity:1;stroke:#000000;stroke-width:0.151373;stroke-linecap:round;stroke-linejoin:round;stroke-miterlimit:0;stroke-opacity:1"
       d="m 39.257271,57.437194 c 0.217049,0.140489 0.501911,0.12727 0.721522,0"
       id="path210"
       sodipodi:nodetypes="cc"
       transform="matrix(-1.268547,-0.20353331,-0.16351967,0.91038809,109.53588,-12.285613)"
       inkscape:original-d="m 39.257271,57.437194 c 0.248537,0.153704 0.517236,0.114473 0.721522,0"
       inkscape:path-effect="#path-effect256" /><path
       style="fill:none;fill-opacity:1;stroke:#000000;stroke-width:0.151373;stroke-linecap:round;stroke-linejoin:round;stroke-miterlimit:0;stroke-opacity:1"
       d="m 39.257271,57.437194 c 0.217049,0.140489 0.501911,0.12727 0.721522,0"
       id="path211"
       sodipodi:nodetypes="cc"
       transform="matrix(-1.268547,-0.20353331,0.16351967,-0.91038809,91.366457,88.871796)"
       inkscape:original-d="m 39.257271,57.437194 c 0.248537,0.153704 0.517236,0.114473 0.721522,0"
       inkscape:path-effect="#path-effect258" /><rect
       style="fill:#6f6f6f;fill-opacity:1;stroke:#000000;stroke-width:0.165023;stroke-linecap:round;stroke-linejoin:round;stroke-miterlimit:0;stroke-opacity:1"
       id="rect211"
       width="0.62160182"
       height="3.7820985"
       x="55.605873"
       y="15.219595"
       rx="0.38021806"
       ry="0.18589996"
       transform="matrix(0.96637724,0.25712842,-0.28029459,0.95991403,0,0)" /><path
       style="fill:none;fill-opacity:1;stroke:#000000;stroke-width:0.211661;stroke-linecap:round;stroke-linejoin:round;stroke-miterlimit:0;stroke-opacity:1"
       d="m 39.257271,57.437194 c 0.216297,0.139557 0.502384,0.127826 0.721522,0"
       id="path212"
       sodipodi:nodetypes="cc"
       transform="matrix(0.78917117,0.20997839,-0.20864183,0.71452761,29.554593,-17.229759)"
       inkscape:original-d="m 39.257271,57.437194 c 0.248537,0.153704 0.517236,0.114473 0.721522,0"
       inkscape:path-effect="#path-effect260" /><path
       style="fill:none;fill-opacity:1;stroke:#000000;stroke-width:0.211661;stroke-linecap:round;stroke-linejoin:round;stroke-miterlimit:0;stroke-opacity:1"
       d="m 39.257271,57.437194 c 0.216297,0.139557 0.502384,0.127826 0.721522,0"
       id="path213"
       sodipodi:nodetypes="cc"
       transform="matrix(0.78917117,0.20997839,0.20864184,-0.7145276,6.3714389,62.164687)"
       inkscape:original-d="m 39.257271,57.437194 c 0.248537,0.153704 0.517236,0.114473 0.721522,0"
       inkscape:path-effect="#path-effect262" /></g></svg>
